<?xml version="1.0" standalone="no"?>
<!DOCTYPE svg PUBLIC "-//W3C//DTD SVG 1.1//EN" "http://www.w3.org/Graphics/SVG/1.1/DTD/svg11.dtd" >
<!--
2013-9-30: Created.
-->
<svg>
<metadata>
Created by iconfont
</metadata>
<defs>

<font id="iconfont" horiz-adv-x="1024" >
  <font-face
    font-family="iconfont"
    font-weight="500"
    font-stretch="normal"
    units-per-em="1024"
    ascent="896"
    descent="-128"
  />
    <missing-glyph />
    
    <glyph glyph-name="weibiaoti2" unicode="&#58943;" d="M424.763392 206.411776l259.528704 259.524608c73.37984-37.507072 165.515264-25.591808 226.932736 35.823616 61.417472 61.41952 73.332736 153.552896 35.825664 226.934784l-168.658944-168.656896-85.05344 85.055488 168.654848 168.656896c-73.37984 37.50912-165.515264 25.593856-226.932736-35.823616-61.417472-61.417472-73.332736-153.552896-35.825664-226.934784L339.707904 291.467264c-73.37984 37.507072-165.515264 25.591808-226.932736-35.823616C51.359744 194.228224 39.44448 102.0928 76.949504 28.708864l168.656896 168.656896 85.057536-85.055488-168.656896-168.656896c73.383936-37.505024 165.517312-25.591808 226.936832 35.827712C450.357248 40.896512 462.27456 133.02784 424.763392 206.411776z"  horiz-adv-x="1024" />

    
    <glyph glyph-name="star" unicode="&#58907;" d="M956.742 464.115c-5.241 16.201-19.179 28.055-36.035 30.497l-254.931 44.791-114.003 229.438c-7.445 15.248-22.993 24.898-40.026 24.898-17.036 0-32.523-9.649-40.146-24.898l-113.945-229.438-254.871-46.339c-16.857-2.443-30.853-14.296-36.036-30.497-5.301-16.142-0.893-33.951 11.318-45.804l184.408-170.41-48.186-247.663c-2.859-16.737 3.931-33.834 17.81-43.721 13.245-13.245 40.563-6.908 47.054-3.514l232.595 113.646 231.106-113.646c6.491-3.394 32.167-11.373 47.053 3.514 13.76 9.887 20.787 26.983 17.87 43.721l-46.698 247.663 184.467 172.019c12.152 11.793 16.499 29.602 11.197 45.744z"  horiz-adv-x="1024" />

    
    <glyph glyph-name="download" unicode="&#58920;" d="M843.001 63.231c-0.024 0-0.05 0-0.05 0l-658.793 0c-14.14 0-25.599-11.459-25.599-25.624 0-14.14 11.484-25.6 25.599-25.6l658.793 0c0 0 0.024 0 0.05 0 14.14 0 25.6 11.459 25.6 25.6 0 14.166-11.459 25.624-25.6 25.624zM494.381 117.969c4.78-4.806 11.358-7.817 18.668-7.817l0 0 0 0c7.309 0 13.886 2.986 18.617 7.841l318.189 318.19c4.781 4.755 7.793 11.331 7.817 18.592 0 14.494-11.839 26.231-26.256 26.231-7.285 0.025-13.837-2.96-18.567-7.715l-273.569-273.544 0 495.206c-0.026 0.025-0.026 0.025-0.026 0.05 0.026 14.494-11.71 26.257-26.18 26.257-14.494 0-26.231-11.763-26.231-26.257 0 0 0-0.025 0.025-0.05l0-495.182-273.544 273.543c-4.73 4.755-11.332 7.715-18.567 7.69-14.494 0.025-26.231-11.737-26.282-26.181 0-7.285 2.986-13.913 7.766-18.618l318.14-318.241z"  horiz-adv-x="1024" />

    
    <glyph glyph-name="htmal5icon20" unicode="&#58936;" d="M727.308741 495.381763c-28.739555 0-53.887304-10.777461-71.850421-28.739555l-255.06828 147.292648c3.591805 7.184633 3.591805 17.963117 3.591805 25.14775 0 61.072961-46.702672 107.775632-107.775632 107.775632-61.072961 0-107.775632-46.702672-107.775632-107.775632 0-61.072961 46.702672-107.775632 107.775632-107.775632 28.740578 0 53.887304 10.777461 71.850421 28.740578l255.069303-147.292648c-3.592828-7.184633-3.592828-17.963117-3.592828-25.14775 0-7.184633 0-17.962094 3.592828-25.14775l-255.069303-150.885476c-17.962094 17.963117-43.109844 28.739555-71.850421 28.739555-57.480132 0-104.182804-46.702672-104.182804-104.182804 0-57.480132 46.702672-104.182804 104.182804-104.182804s104.182804 46.702672 104.182804 104.182804c0 7.184633 0 14.370289-3.592828 25.14775l255.06828 150.885476c17.962094-17.962094 43.109844-28.739555 71.850421-28.739555 61.072961 0 107.775632 46.702672 107.775632 107.775632C831.491545 452.27192 788.381701 495.381763 727.308741 495.381763z"  horiz-adv-x="1024" />

    
    <glyph glyph-name="iconfontduigou" unicode="&#58899;" d="M511.974401 896c-282.75527 0-511.974401-229.219131-511.974401-511.974401 0-282.757318 229.219131-511.974401 511.974401-511.974401 282.757318 0 511.974401 229.217083 511.974401 511.974401C1023.948803 666.780869 794.729672 896 511.974401 896zM805.63063 516.825615 474.510162 185.703099c0 0-0.004096-0.004096-0.010239-0.010239-15.265029-15.269125-38.541433-17.652877-56.31104-7.157402-3.290971 1.945503-6.393536 4.333351-9.219635 7.157402-0.002048 0.004096-0.006144 0.006144-0.006144 0.006144l-190.642884 190.642884c-18.095223 18.095223-18.095223 47.4375 0 65.536819 18.095223 18.095223 47.4375 18.095223 65.532723 0l157.884714-157.884714 298.362298 298.362298c18.097271 18.095223 47.439548 18.095223 65.534771 0C823.725854 564.261067 823.725854 534.920838 805.63063 516.825615z"  horiz-adv-x="1025" />

    
    <glyph glyph-name="arrow-right-copy" unicode="&#58885;" d="M336.733 776.333l-56.278-55.72 334.857-337.154-337.673-334.315 55.802-56.184 393.944 390.040z"  horiz-adv-x="1024" />

    
    <glyph glyph-name="iconset0337" unicode="&#59116;" d="M725.333333 576 128 576c-46.933333 0-85.333333-38.4-85.333333-85.333333l0-384c0-46.933333 38.4-85.333333 85.333333-85.333333l597.333333 0c46.933333 0 85.333333 38.4 85.333333 85.333333L810.666667 490.666667C810.666667 537.6 772.266667 576 725.333333 576zM128 533.333333l597.333333 0c10.666667 0 19.2-4.266667 27.733333-10.666667L456.533333 226.133333C448 217.6 437.333333 213.333333 426.666667 213.333333c-10.666667 0-21.333333 4.266667-29.866667 12.8L100.266667 522.666667C108.8 529.066667 117.333333 533.333333 128 533.333333zM85.333333 477.866667l179.2-179.2L85.333333 119.466667 85.333333 477.866667zM725.333333 64 128 64c-10.666667 0-19.2 4.266667-27.733333 10.666667l194.133333 194.133333 72.533333-72.533333C384 179.2 405.333333 170.666667 426.666667 170.666667c21.333333 0 42.666667 8.533333 59.733333 23.466667l72.533333 72.533333 194.133333-194.133333C744.533333 68.266667 736 64 725.333333 64zM768 119.466667 588.8 298.666667l179.2 179.2L768 119.466667zM896 746.666667 298.666667 746.666667c-46.933333 0-85.333333-38.4-85.333333-85.333333l0-21.333333c0-12.8 8.533333-21.333333 21.333333-21.333333 12.8 0 21.333333 8.533333 21.333333 21.333333l0 21.333333c0 23.466667 19.2 42.666667 42.666667 42.666667l597.333333 0c23.466667 0 42.666667-19.2 42.666667-42.666667l0-384c0-23.466667-19.2-42.666667-42.666667-42.666667l-21.333333 0c-12.8 0-21.333333-8.533333-21.333333-21.333333 0-12.8 8.533333-21.333333 21.333333-21.333333l21.333333 0c46.933333 0 85.333333 38.4 85.333333 85.333333L981.333333 661.333333C981.333333 708.266667 942.933333 746.666667 896 746.666667z"  horiz-adv-x="1024" />

    
    <glyph glyph-name="picture" unicode="&#59312;" d="M422.912 491.328c0-46.72-37.888-84.672-84.672-84.672-46.656 0-84.672 37.888-84.672 84.672C253.568 538.176 291.584 576 338.24 576 385.024 576 422.912 538.176 422.912 491.328zM820.544 128c0 0-34.944 274.432-139.648 274.432-104.768 0-139.712-134.912-209.408-134.912-69.952 0-69.952 33.728-139.776 33.728C261.888 301.248 192 128 192 128L820.544 128 820.544 128zM896 768 128 768l0-704 768 0L896 768M896 832c35.392 0 64-28.672 64-64l0-704c0-35.392-28.608-64-64-64L128 0c-35.328 0-64 28.608-64 64L64 768c0 35.328 28.672 64 64 64L896 832 896 832z"  horiz-adv-x="1024" />

    
    <glyph glyph-name="bianji" unicode="&#59060;" d="M249.6 57.6c19.2 0 38.4 6.4 57.6 19.2h6.4l-179.2 179.2v-6.4c-12.8-19.2-19.2-38.4-19.2-57.6l-64-198.4 198.4 64zM889.6 774.4l-57.6 57.6c-32 32-83.2 32-115.2 0l-57.6-57.6 172.8-172.8 57.6 57.6c32 32 32 83.2 0 115.2v0 0 0zM774.4 544l-172.8 172.8-403.2-403.2 172.8-172.8 403.2 403.2zM0-64h1024v-64h-1024v64z"  horiz-adv-x="1024" />

    
    <glyph glyph-name="shanchu2" unicode="&#58922;" d="M515.622-96c-264.676 0-480 215.324-480 480 0 264.654 215.324 480 480 480s480-215.346 480-480c0-264.676-215.324-480-480-480zM515.622 822.262c-241.658 0-438.262-196.604-438.262-438.262s196.604-438.284 438.262-438.284 438.262 196.626 438.262 438.284-196.604 438.262-438.262 438.262zM735.244 365.673c-3.774-3.753-8.967-6.109-14.749-6.109l-408.698 0c-11.542 0-20.88 9.338-20.88 20.88 0 11.52 9.338 20.858 20.858 20.858l408.72 0c11.564 0.022 20.902-9.316 20.88-20.858 0.022-5.782-2.334-10.996-6.131-14.771z"  horiz-adv-x="1028" />

    
    <glyph glyph-name="youhuiquan" unicode="&#58887;" d="M1024 249.562438 1024 175.809089 1024 89.369661C1024 46.436008 989.945833 11.636364 947.920505 11.636364L122.62495 11.636364C80.648374 11.661238 46.594206 46.436008 46.56983 89.344787L46.56983 175.634963 46.56983 249.263942C76.333708 255.606979 104.805627 271.004393 120.723572 296.301917 131.912453 314.087294 143.028201 338.315208 143.028201 361.025769 143.028201 383.686577 132.692503 404.805162 121.479247 422.590538 105.536926 447.912937 76.309332 466.394806 46.545455 472.762717L46.545455 546.391696 46.545455 632.109759C46.618587 675.043412 80.672754 709.818182 122.649325 709.818182L947.920505 709.818182C989.897081 709.818182 1023.975624 675.043412 1024 632.109759L1024 546.217574 1024 472.464221C993.992355 465.673444 968.470011 446.544831 952.893338 420.525945 942.484513 403.188308 928.857972 382.791094 928.809216 361.025769 928.809216 339.23557 942.484513 318.86323 952.893338 301.500719 968.494387 275.506707 993.992355 256.378093 1024 249.562438L1024 249.562438ZM975.661121 659.173385 373.304008 659.173385 373.304008 586.166272 316.004841 586.166272 316.004841 659.173385 94.908709 659.173385 94.908709 525.870108C149.634267 492.2147 193.926623 430.898674 193.926623 361.050643 193.926623 291.152863 149.609891 229.861711 94.908709 196.206303L94.908709 62.306034 316.004841 62.306034 316.004841 134.989777 373.304008 134.989791 373.304008 62.306048 975.685497 62.306034 975.685497 203.270707C921.73999 237.100237 876.472571 291.749855 876.472571 361.075517 876.472571 430.351434 921.691238 484.976175 975.661121 518.78083L975.661121 659.173385ZM744.741204 336.598858 669.783031 336.598858C666.809083 336.598858 663.981391 335.777992 661.202455 334.061642 658.496647 332.569162 657.302193 333.962147 657.302193 330.902561 657.302193 327.569357 657.350945 324.385401 657.740972 320.778575 658.155376 317.14688 658.27726 317.246376 658.27726 315.007656 658.27726 310.256598 662.323782 308.540248 669.758655 310.256598L743.668629 310.256598C751.249766 310.256598 755.003769 306.649772 755.003769 299.386373L755.003769 275.282832C755.003769 267.497067 749.445893 263.467371 738.890808 263.467371L716.415549 263.467371C710.49202 263.467371 704.34911 263.193749 697.743039 262.920127 691.405112 262.372887 685.335329 262.248513 680.045601 262.248513L669.758655 262.248513C663.103832 262.248513 659.593598 258.218817 659.593598 250.15943L659.593598 202.822963 659.593598 194.614328C659.593598 190.485132 656.497762 188.49516 650.427978 188.49516L623.808689 188.49516C613.960522 188.49516 609.036442 192.848226 609.036442 201.579227 609.036442 204.912431 609.304585 211.653464 609.621481 222.10082 610.157768 232.423801 609.889624 247.348592 609.085193 251.378288 609.085193 255.308483 608.646414 257.970074 607.915115 259.164058 607.256948 260.333163 605.087427 260.855533 601.138409 260.855533L527.350319 260.855533C517.4534 260.855533 512.52932 266.029461 512.52932 276.476816 512.52932 278.715536 512.334308 281.799992 511.456749 285.506313 510.676694 288.988765 510.676694 290.331997 511.456749 294.461189 512.334308 298.416263 513.48001 301.99821 514.918232 305.331414 516.502714 308.390996 519.476662 309.609854 523.961963 308.813866L537.63726 308.813866 555.895366 308.813866 588.511311 308.813866 599.992706 308.813866 605.648086 308.813866C607.232568 308.813866 607.890739 310.778964 607.890739 314.933034L607.890739 330.604065C607.890739 334.608882 603.332305 336.598858 594.361702 336.598858L522.865017 336.598858C519.769186 336.598858 517.185261 336.723233 514.869481 337.071476 512.504944 337.469473 511.407998 339.708188 511.407998 343.563762L511.407998 355.851841C511.407998 362.095379 511.01797 366.871315 510.286671 370.179645 508.726565 374.930702 509.896643 378.960398 513.601894 381.995106 517.404649 385.32831 522.426238 386.746163 528.422893 386.746163 534.541428 385.925302 541.220627 385.800927 548.557996 386.198919 555.675978 386.621789 556.699797 386.746163 560.478175 386.746163L573.982832 386.746163C578.565641 386.746163 580.101371 388.437639 578.565641 391.497221 577.103043 393.263323 576.371745 399.258117 568.839363 409.43185 561.111966 420.103075 549.386803 436.943216 541.074367 448.087063 531.177453 461.743248 519.696054 476.493917 506.800812 492.388822 501.535455 501.144702 502.656782 508.432975 510.237919 513.855651 513.991922 516.293367 517.965312 519.303201 522.109342 523.009522 526.3265 526.541726 531.177453 529.924678 536.491557 533.08376 544.023943 537.88457 551.215048 533.556378 558.064887 520.049441 560.4538 516.716237 564.719709 510.995065 571.252648 502.56256 577.736834 494.080303 584.391661 485.399045 591.119611 475.648182 597.871942 465.947066 604.380504 457.439935 610.52342 450.027287 616.666331 442.341018 619.981554 437.664582 620.883489 436.09748 622.346091 432.913524 625.100651 430.923553 629.269057 430.12756 633.486215 429.306698 636.460162 430.64993 637.898384 433.734386 638.556556 435.425862 641.749895 440.326172 647.527159 448.808429 653.231295 457.041939 659.544841 466.345062 666.345923 476.792418 673.220138 487.165147 679.679949 496.841388 685.6766 506.19426 691.868267 515.323257 695.646646 521.143924 697.158 523.457271 700.912002 529.103816 704.275977 532.611142 706.738018 534.178243 709.443826 535.795098 713.807244 535.32248 719.998911 533.034012 723.752913 531.466906 727.994452 529.078942 732.333494 525.944734 736.989431 522.711031 740.109642 520.248436 741.499108 518.606713 749.884672 509.801081 752.249209 502.239185 748.373322 495.995648 746.935101 493.483311 742.693567 487.488517 735.965612 477.911775 728.84763 468.409656 721.656525 458.28567 713.660984 447.41545 705.543564 436.669598 698.474338 420.401571 692.038903 410.650708 685.554716 401.073967 681.995729 395.352795 681.069414 393.959815 679.046153 390.004745 679.826209 387.616777 683.921482 386.671542 688.187392 385.850675 692.307046 385.452684 695.914789 385.452684L742.376667 385.452684C746.057542 385.452684 749.299633 384.034825 752.005441 380.676748 754.711249 377.492792 756.027587 374.458084 756.027587 371.249254L756.027587 344.857246C756.100715 339.23557 752.176077 336.598858 744.741204 336.598858L744.741204 336.598858ZM316.029221 508.607097 373.218886 508.607097 373.218886 387.392903 316.029221 387.417777 316.029221 508.607097 316.029221 508.607097ZM373.19451 190.284828 316.004841 190.284828 316.004841 333.912394 373.19451 333.912394 373.19451 190.284828 373.19451 190.284828Z"  horiz-adv-x="1024" />

    
    <glyph glyph-name="fenxiang2" unicode="&#58942;" d="M1016.1904 802.648c-7.7152 8.776-19.96 12.7344-31.7152 9.552L23.1664 552.4784c-11.3072-3.0608-19.8992-12.0816-22.4288-23.5104-2.5104-11.4288 1.4896-23.2256 10.4704-30.776L239.008 306.8816l104.5536-290.456c4.1232-11.3872 14.552-19.4704 26.4704-20.5712l3.1232-0.1632c10.96 0 21.2448 5.8784 26.8576 15.3472l63.0016 106.2064 181.2496-154.984c5.632-4.8576 12.8976-7.552 20.368-7.552 2.6944 0 5.1424 0.2864 7.3056 0.8576 9.7152 2.3264 17.8368 9.224 21.7152 18.5312l327.968 795.856C1026.192 780.8928 1024.0688 793.7504 1016.1904 802.648zM617.0784 469.008l-119.6976-158.7792c-5.0608-6.6944-7.2048-14.9392-6.0416-23.2256 1.1632-8.2864 5.4896-15.6336 12.2048-20.736 13.3264-10 33.8176-7.1024 43.8784 6.2048L745.8992 535.744c8.7344 11.6736 8.368 27.6336-0.8576 38.736-9.0608 11.0208-25.3072 14.5312-37.96 8.2864l-439.44-214.6576c-0.8368-0.408-1.632-0.8576-2.4288-1.3472L97.4736 507.6208l841.9792 227.4336L652.1408 37.976l-176.6976 151.1472c-5.6736 4.816-12.9184 7.5104-20.3888 7.5104-1.6128 0-3.2448-0.1632-5.1424-0.4496-9.1424-1.5104-17.1024-6.9792-21.7968-14.8976l-48.0832-81.0224-77.4304 215.1488L617.0784 469.008z"  horiz-adv-x="1025" />

    
    <glyph glyph-name="huiyuantequan" unicode="&#59013;" d="M361.541243 189.821509c-2.559289 0-5.139044 0.639566-7.453762 1.899256-4.347005 2.365884-7.331989 6.661723-8.002254 11.577686l-45.293579 329.110623c-0.832971 6.063089 1.969864 12.06478 7.14984 15.325034 5.219885 3.239787 11.821233 3.188622 16.919345-0.193405l93.573165-61.878303L502.744195 618.619552c2.864234 4.508687 7.839549 7.240915 13.18223 7.240915l0.020466 0c5.341658-0.010233 10.317996-2.75167 13.18223-7.281847l83.620489-132.662439 91.115184 61.765739c5.118578 3.432169 11.719926 3.574409 16.939811 0.375553 5.219885-3.219321 8.084119-9.210779 7.29208-15.294334l-42.917462-329.355193c-0.649799-4.976338-3.656273-9.332553-8.084119-11.719926-4.40738-2.376117-9.728572-2.457981-14.217816-0.304945-0.751107 0.36532-75.740008 36.367279-145.833413 36.367279-70.215178 0-148.108223-36.093033-148.880819-36.458353C366.070396 190.308603 363.795587 189.821509 361.541243 189.821509zM336.39554 502.500904l37.81935-274.768971c29.248138 11.567453 87.093591 31.218002 142.827963 31.218002 55.225789 0 111.162776-19.295462 139.862421-30.933523l35.767622 274.383184-75.760474-51.356668c-3.493567-2.365884-7.79964-3.229554-11.943007-2.355651-4.143367 0.86367-7.758708 3.371794-10.013051 6.946202l-79.07087 125.440967-79.619362-125.553531c-2.254344-3.5345-5.829775-6.022157-9.911744-6.89606-4.122901-0.913812-8.348132-0.080841-11.881608 2.24411L336.39554 502.500904zM517.630231 365.494531m-23.048949 0a22.524 22.524 0 1 0 46.097898 0 22.524 22.524 0 1 0-46.097898 0ZM517.632277 326.850395c-21.306258 0-38.652322 17.33583-38.652322 38.642089 0 21.316491 17.346063 38.652322 38.652322 38.652322s38.652322-17.33583 38.652322-38.652322C556.283576 344.186226 538.938536 326.850395 517.632277 326.850395zM517.632277 372.946246c-4.102435 0-7.453762-3.341095-7.453762-7.453762 0-4.102435 3.351328-7.444553 7.453762-7.444553s7.453762 3.341095 7.453762 7.444553C525.08604 369.605152 521.734712 372.946246 517.632277 372.946246zM514.422166-66.260867c-248.100588 0-449.931363 201.842031-449.931363 449.941596S266.322601 833.622324 514.422166 833.622324s449.951829-201.842031 449.951829-449.941596C964.375018 130.023588 762.522754-66.260867 514.422166-66.260867zM514.422166 802.424788c-230.896764 0-418.733826-187.847296-418.733826-418.74406s187.837062-418.74406 418.733826-418.74406 418.754293 187.847296 418.754293 418.74406S745.31893 802.424788 514.422166 802.424788z"  horiz-adv-x="1024" />

    
    <glyph glyph-name="huiyuantequanshengritequan" unicode="&#59017;" d="M512 880c273.488 0 496-222.512 496-496S785.488-112 512-112 16 110.512 16 384 238.512 880 512 880M512 896C229.232 896 0 666.768 0 384s229.232-512 512-512 512 229.232 512 512S794.768 896 512 896L512 896zM767.856 480c17.872 0 32.4-14.528 32.4-32.4 0-17.872-14.528-32.4-32.4-32.4L752 415.2l-32 0 0-32 0-211.536c0-31.312-25.472-56.784-56.784-56.784L361.04 114.88c-31.312 0-56.784 25.472-56.784 56.784L304.256 383.2l0 32-32 0-15.584 0c-17.872 0-32.4 14.528-32.4 32.4 0 17.872 14.528 32.4 32.4 32.4l104.368 0 302.176 0L767.856 480M767.856 512l-104.64 0L361.04 512l-104.368 0c-35.568 0-64.4-28.832-64.4-64.4s28.832-64.4 64.4-64.4l15.584 0 0-211.536c0-49.04 39.744-88.784 88.784-88.784l302.176 0c49.04 0 88.784 39.744 88.784 88.784L752 383.2l15.856 0c35.568 0 64.4 28.832 64.4 64.4S803.424 512 767.856 512L767.856 512zM304.272 416l416 0 0-32-416 0 0 32ZM609.616 657.616c12.816 0 24.88-4.992 33.936-14.064 18.72-18.72 18.72-49.168 0-67.888-10.896-10.896-56.928-26.016-105.568-37.68 11.648 48.624 26.784 94.656 37.696 105.568C584.736 652.624 596.8 657.616 609.616 657.616M609.616 689.616c-20.48 0-40.944-7.808-56.576-23.424C521.808 634.944 496.48 496.48 496.48 496.48s138.464 25.328 169.712 56.576 31.248 81.888 0 113.136C650.56 681.808 630.096 689.616 609.616 689.616L609.616 689.616zM411.904 657.136c12.816 0 24.88-4.992 33.936-14.064 10.896-10.896 26.016-56.928 37.68-105.568-48.624 11.648-94.656 26.784-105.568 37.696-18.72 18.72-18.72 49.168 0 67.888C387.024 652.144 399.072 657.136 411.904 657.136M411.904 689.136c-20.48 0-40.944-7.808-56.576-23.424-31.248-31.248-31.248-81.888 0-113.136S525.04 496 525.04 496s-25.328 138.464-56.576 169.712C452.848 681.328 432.368 689.136 411.904 689.136L411.904 689.136zM494 480l32 0 0-364.992-32 0 0 364.992Z"  horiz-adv-x="1024" />

    
    <glyph glyph-name="tixing" unicode="&#59079;" d="M528.384 701.952c169.472 0 307.712-138.24 307.712-307.712s-138.24-307.712-307.712-307.712-307.712 138.24-307.712 307.712S358.912 701.952 528.384 701.952M528.384 760.32c-202.24 0-366.08-163.84-366.08-366.08 0-202.24 163.84-366.08 366.08-366.08 202.24 0 366.08 163.84 366.08 366.08C894.976 596.48 730.624 760.32 528.384 760.32L528.384 760.32zM522.752 328.704c-8.192 0-15.872 3.072-22.016 9.728L370.688 483.328c-10.752 12.288-9.728 30.72 2.048 41.472 12.288 10.752 30.72 9.728 41.472-2.048l130.56-144.896c10.752-12.288 9.728-30.72-2.048-41.472C536.576 331.264 529.92 328.704 522.752 328.704zM528.384 313.856c-16.384 0-29.184 13.312-29.184 29.184l0 261.12c0 16.384 13.312 29.184 29.184 29.184s29.184-13.312 29.184-29.184l0-261.12C558.08 326.656 544.768 313.856 528.384 313.856zM176.128 607.744c-7.68 0-14.848 3.072-20.48 8.704-11.264 11.264-11.264 30.208 0 41.472l122.88 122.88c11.264 11.264 30.208 11.264 41.472 0 11.264-11.264 11.264-30.208 0-41.472l-122.88-122.88C190.976 610.304 183.296 607.744 176.128 607.744zM881.152 607.744c-7.68 0-14.848 3.072-20.48 8.704l-122.88 122.88c-11.264 11.264-11.264 30.208 0 41.472s30.208 11.264 41.472 0l122.88-122.88c11.264-11.264 11.264-30.208 0-41.472C896 610.304 888.832 607.744 881.152 607.744zM238.08-15.872c-5.632 0-11.776 1.536-16.896 5.632-13.312 9.216-16.384 27.648-6.656 40.96l36.352 51.2c9.216 13.312 27.648 16.384 40.96 6.656 13.312-9.216 16.384-27.648 6.656-40.96l-36.352-51.2C256-11.264 247.296-15.872 238.08-15.872zM819.2-15.872c-9.216 0-17.92 4.096-24.064 12.288l-36.352 51.2c-9.216 13.312-6.144 31.232 6.656 40.96 13.312 9.216 31.232 6.144 40.96-6.656l36.352-51.2c9.216-13.312 6.144-31.232-6.656-40.96C830.976-13.824 825.344-15.872 819.2-15.872z"  horiz-adv-x="1024" />

    
    <glyph glyph-name="shanchu1" unicode="&#58917;" d="M512-359.489906M718.519288 207.772936 543.827304 382.362582l174.180292 174.180292c8.801119 8.801119 8.801119 23.128523 0 31.827304-8.801119 8.801119-23.128523 8.801119-31.827304 0L512 414.189886 337.819708 588.370178c-8.801119 8.801119-23.230861 8.596442-31.929642-0.102339l0.102339 0.102339c-8.801119-8.801119-8.698781-23.026184 0.102339-31.827304l174.180292-174.180292L305.58305 207.772936c-8.801119-8.801119-8.801119-23.128523 0-31.827304 8.801119-8.801119 23.128523-8.801119 31.827304 0L512 350.535279 686.691985 175.945633c8.801119-8.801119 22.923846-8.903458 31.724965-0.102339l0.102339 0.102339C727.218069 184.644413 727.218069 198.971817 718.519288 207.772936z"  horiz-adv-x="1024" />

    
    <glyph glyph-name="sousuo1" unicode="&#58952;" d="M823.41635 119.045373 672.262243 270.19948c37.762942 47.280432 58.333 105.511093 58.333 166.914251 0 71.637018-27.938437 138.975815-78.493704 189.63342-50.657605 50.657605-117.996402 78.493704-189.63342 78.493704s-138.975815-27.938437-189.63342-78.493704c-50.657605-50.657605-78.493704-117.996402-78.493704-189.63342s27.938437-138.975815 78.493704-189.63342c50.657605-50.657605 117.996402-78.493704 189.63342-78.493704 61.198481 0 119.122127 20.365381 166.30022 57.821307l151.256446-151.256446c6.037977-6.037977 13.815711-9.005797 21.695783-9.005797s15.760144 2.967819 21.695783 9.005797C835.389966 87.627424 835.389966 107.071757 823.41635 119.045373zM239.267639 437.21607c0 123.010993 100.087148 223.098141 223.098141 223.098141s223.098141-100.087148 223.098141-223.098141-100.087148-223.098141-223.098141-223.098141S239.267639 314.205077 239.267639 437.21607z"  horiz-adv-x="1024" />

    
    <glyph glyph-name="jiufuqianbaoicon08" unicode="&#59029;" d="M875.432137 747.432137c-198.090484 198.090484-523.981279 198.090484-722.071763 0s-198.090484-523.981279 0-722.071763 523.981279-198.090484 722.071763 0S1073.522621 542.951638 875.432137 747.432137zM670.951638 178.720749 511.201248 338.471139l-159.75039-159.75039c-12.780031-12.780031-31.950078-12.780031-44.730109 0-12.780031 12.780031-12.780031 31.950078 0 44.730109L466.471139 383.201248 306.720749 542.951638C293.940718 555.731669 293.940718 574.901716 306.720749 587.681747c12.780031 12.780031 31.950078 12.780031 44.730109 0L511.201248 427.931357l159.75039 159.75039c12.780031 12.780031 31.950078 12.780031 44.730109 0 12.780031-12.780031 12.780031-31.950078 0-44.730109L555.931357 383.201248l159.75039-159.75039c12.780031-12.780031 12.780031-31.950078 0-44.730109S683.731669 165.940718 670.951638 178.720749z"  horiz-adv-x="1024" />

    
    <glyph glyph-name="iconfontzhizuobiaozhun18" unicode="&#58897;" d="M64.261071 831.378214 64.503595 774.066927 382.108163 426.671868 382.108163 131.028475 382.302591 131.028475 382.248356 130.993682 445.905164 31.717631 494.3362 62.771905 439.421496 148.4124 439.436846 447.752999 139.856793 774.066927 886.441553 774.066927 586.97304 447.899332 586.877873-62.576965 644.190183-62.576965 644.190183 426.671868 961.795774 774.066927 961.795774 831.378214Z"  horiz-adv-x="1024" />

    
    <glyph glyph-name="qiyerongyu" unicode="&#58898;" d="M647.264256 79.47264c-1.72032 6.207488-5.388288 11.454464-10.233856 15.1552-4.841472 3.692544-10.858496 5.834752-17.27488 5.834752l-30.3104 0L559.14496 100.462592l0 51.750912 0 51.74272c-7.684096-1.292288-15.460352-2.289664-23.324672-2.973696-7.86432-0.67584-15.81056-1.032192-23.826432-1.032192-8.032256 0-15.986688 0.356352-23.853056 1.032192-7.86432 0.684032-15.64672 1.681408-23.32672 2.973696l0-51.74272 0-51.750912-30.285824 0-30.283776 0c-6.416384 0-12.435456-2.142208-17.283072-5.834752-4.847616-3.702784-8.513536-8.947712-10.225664-15.1552l-10.760192-38.805504-10.76224-38.813696c-1.183744-4.317184-1.339392-8.781824-0.520192-13.07648 0.813056-4.274176 2.605056-8.372224 5.296128-11.935744 2.7136-3.571712 6.168576-6.4 10.061824-8.339456 3.889152-1.949696 8.224768-3.002368 12.691456-3.002368l129.24928 0 129.253376 0c0.04096 0 0.079872 0 0.11264 0 0.04096 0 0.083968 0 0.129024 0 7.8848 0 15.024128 3.209216 20.191232 8.402944 5.1712 5.185536 8.359936 12.363776 8.359936 20.279296 0 1.96608-0.190464 3.889152-0.567296 5.756928-0.372736 1.86368-0.9216 3.657728-1.6384 5.357568l-10.283008 37.087232L647.264256 79.47264 647.264256 79.47264 647.264256 79.47264zM802.228224 694.491136c-3.95264 1.058816-7.940096 1.837056-11.927552 2.349056-3.991552 0.520192-7.989248 0.772096-11.976704 0.772096-1.8432 0-3.6864-0.06144-5.523456-0.17408-1.835008-0.114688-3.672064-0.278528-5.505024-0.477184L767.295488 735.205376 767.295488 773.455872c0 7.448576-3.008512 14.20288-7.868416 19.091456-4.857856 4.880384-11.573248 7.90528-18.993152 7.90528L512.012288 800.452608 283.588608 800.452608c-7.424 0-14.147584-3.024896-19.017728-7.90528-4.868096-4.890624-7.876608-11.644928-7.876608-19.091456l0-38.250496 0-38.242304c-1.837056 0.200704-3.672064 0.364544-5.505024 0.477184-1.835008 0.11264-3.670016 0.16384-5.505024 0.16384-3.997696 0-7.993344-0.241664-11.9808-0.761856-3.9936-0.512-7.972864-1.292288-11.925504-2.349056-31.350784-8.38656-55.365632-32.39936-68.868096-64.4608-13.502464-32.0512-16.480256-72.142848-5.74464-112.674816 9.402368-35.432448 27.731968-65.333248 50.618368-86.386688 22.884352-21.049344 50.331648-33.236992 77.9776-33.236992 1.398784 0 2.799616 0.067584 4.204544 0.172032 1.400832 0.104448 2.809856 0.243712 4.214784 0.382976 1.024-2.228224 2.076672-4.429824 3.160064-6.61504 1.083392-2.174976 2.197504-4.335616 3.334144-6.473728 0.210944-0.39936 0.423936-0.800768 0.632832-1.19808 0.208896-0.38912 0.41984-0.780288 0.632832-1.153024 1.673216-3.096576 3.397632-6.156288 5.175296-9.166848 1.78176-3.008512 3.610624-5.974016 5.496832-8.884224 0.208896-0.331776 0.41984-0.651264 0.632832-0.980992 0.212992-0.331776 0.425984-0.659456 0.64512-0.989184 1.97632-3.00032 3.987456-5.955584 6.055936-8.869888 2.060288-2.920448 4.171776-5.799936 6.342656-8.626176 0.055296-0.077824 0.116736-0.139264 0.176128-0.223232 0.065536-0.069632 0.129024-0.147456 0.190464-0.217088 4.5568-5.896192 9.345024-11.573248 14.352384-17.043456 4.99712-5.453824 10.213376-10.69056 15.609856-15.693824 0.108544-0.094208 0.198656-0.182272 0.290816-0.27648 0.088064-0.096256 0.17408-0.182272 0.264192-0.260096 2.670592-2.461696 5.392384-4.847616 8.153088-7.17824 2.756608-2.342912 5.558272-4.603904 8.392704-6.823936 0.14336-0.104448 0.27648-0.208896 0.407552-0.301056 0.129024-0.098304 0.260096-0.202752 0.391168-0.305152 11.73504-9.050112 24.205312-17.053696 37.300224-23.875584 13.092864-6.83008 26.79808-12.484608 41.00096-16.836608 0.047104-0.018432 0.090112-0.043008 0.13312-0.0512 0.043008-0.018432 0.090112-0.026624 0.139264-0.043008 3.565568-1.073152 7.151616-2.080768 10.76224-3.00032 3.61472-0.927744 7.251968-1.767424 10.919936-2.52928 0.008192 0 0.012288 0 0.012288 0 0.008192 0 0.012288 0 0.02048 0l0 0 0 0c3.801088-0.774144 7.630848-1.458176 11.483136-2.048 3.848192-0.587776 7.727104-1.091584 11.626496-1.4848 0.086016-0.026624 0.182272-0.026624 0.27648-0.032768 0.090112-0.01024 0.176128-0.018432 0.260096-0.018432 3.874816-0.38912 7.780352-0.692224 11.70432-0.909312 3.926016-0.200704 7.876608-0.311296 11.831296-0.311296 3.964928 0 7.897088 0.11264 11.808768 0.311296 3.907584 0.217088 7.79264 0.520192 11.659264 0.909312 0.096256 0 0.19456 0.008192 0.294912 0.018432 0.096256 0.006144 0.200704 0.006144 0.303104 0.032768 3.887104 0.391168 7.753728 0.897024 11.585536 1.4848 3.842048 0.589824 7.647232 1.273856 11.431936 2.048 0.016384 0 0.03072 0 0.04096 0 0.008192 0 0.012288 0 0.012288 0 0.022528 0 0.03072 0 0.043008 0 0 0 0.016384 0 0.034816 0 3.661824 0.761856 7.299072 1.593344 10.9056 2.521088 3.60448 0.917504 7.184384 1.916928 10.727424 3.00032 0.043008 0.016384 0.096256 0.026624 0.147456 0.043008 0.0512 0.018432 0.114688 0.026624 0.180224 0.043008 14.200832 4.352 27.901952 10.01472 40.984576 16.836608 13.084672 6.823936 25.556992 14.82752 37.298176 23.877632 0.129024 0.094208 0.262144 0.198656 0.38912 0.301056 0.131072 0.104448 0.256 0.208896 0.387072 0.305152 2.859008 2.209792 5.668864 4.489216 8.429568 6.821888s5.480448 4.734976 8.142848 7.17824c0.083968 0.088064 0.176128 0.16384 0.264192 0.260096 0.09216 0.086016 0.180224 0.17408 0.268288 0.268288 5.419008 5.003264 10.637312 10.24 15.650816 15.710208 5.009408 5.472256 9.80992 11.167744 14.381056 17.08032 0.059392 0.06144 0.120832 0.129024 0.172032 0.192512 0.053248 0.067584 0.106496 0.135168 0.151552 0.208896 2.177024 2.834432 4.298752 5.70368 6.363136 8.636416 2.06848 2.920448 4.087808 5.875712 6.06208 8.886272 0.210944 0.319488 0.423936 0.641024 0.641024 0.960512 0.21504 0.321536 0.428032 0.641024 0.641024 0.974848 1.875968 2.930688 3.715072 5.902336 5.496832 8.910848 1.783808 3.018752 3.516416 6.080512 5.189632 9.172992 0.200704 0.374784 0.407552 0.745472 0.610304 1.13664 0.210944 0.382976 0.417792 0.763904 0.62464 1.161216 1.142784 2.152448 2.2528 4.325376 3.340288 6.51264 1.083392 2.185216 2.144256 4.395008 3.172352 6.623232 1.404928-0.137216 2.818048-0.268288 4.225024-0.372736 1.400832-0.104448 2.797568-0.176128 4.186112-0.176128 27.648 0 55.097344 12.199936 77.989888 33.241088 22.884352 21.047296 41.207808 50.952192 50.59584 86.386688 10.752 40.521728 7.77216 80.611328-5.730304 112.664576C857.595904 662.091776 833.572864 686.106624 802.228224 694.491136L802.228224 694.491136 802.228224 694.491136zM191.342592 529.158144c-7.36256 27.779072-6.207488 55.513088 1.482752 77.568 7.694336 22.050816 21.917696 38.4 40.712192 43.42784 1.982464 0.530432 3.9936 0.919552 6.02112 1.179648 2.02752 0.268288 4.079616 0.387072 6.141952 0.387072 1.824768 0 3.653632-0.120832 5.48864-0.32768 1.83296-0.21504 3.672064-0.528384 5.50912-0.917504l0-63.67232 0-63.680512c0-3.874816 0.096256-7.74144 0.260096-11.58144 0.169984-3.852288 0.411648-7.682048 0.710656-11.487232 0.03072-0.520192 0.06144-1.021952 0.090112-1.544192 0.036864-0.509952 0.067584-1.021952 0.108544-1.542144 0.3072-3.608576 0.690176-7.19872 1.140736-10.768384 0.446464-3.571712 0.96256-7.124992 1.521664-10.663936 0.1024-0.641024 0.210944-1.257472 0.311296-1.882112 0.104448-0.62464 0.208896-1.23904 0.3072-1.855488 0.610304-3.51232 1.28-6.995968 2.002944-10.452992 0.72704-3.459072 1.511424-6.885376 2.361344-10.283008 0.12288-0.528384 0.256-1.048576 0.395264-1.57696 0.13312-0.530432 0.282624-1.058816 0.415744-1.5872 0.157696-0.598016 0.3072-1.1776 0.4608-1.757184 0.151552-0.581632 0.3072-1.155072 0.466944-1.744896-16.181248 2.65216-32.190464 12.632064-45.637632 27.551744S197.28384 506.730496 191.342592 529.158144L191.342592 529.158144 191.342592 529.158144zM651.556864 581.410816l-37.920768-28.573696-37.924864-28.567552 13.791232-45.213696 13.787136-45.203456c0.534528-1.748992 0.489472-3.588096-0.063488-5.25312-0.555008-1.665024-1.60768-3.15392-3.088384-4.237312-0.75776-0.546816-1.579008-0.964608-2.433024-1.23904-0.858112-0.28672-1.736704-0.423936-2.615296-0.423936-0.851968 0-1.71008 0.129024-2.533376 0.380928-0.821248 0.251904-1.60768 0.641024-2.322432 1.153024l-39.12704 27.02336-39.12704 27.02336-39.1168-27.02336-39.118848-27.02336c-1.486848-1.048576-3.233792-1.552384-4.980736-1.533952-1.742848 0.026624-3.485696 0.579584-4.954112 1.665024-1.47456 1.083392-2.523136 2.574336-3.065856 4.237312-0.546816 1.665024-0.585728 3.504128-0.038912 5.25312l13.76256 45.203456 13.76256 45.213696-37.912576 28.567552-37.916672 28.573696c-1.460224 1.103872-2.500608 2.619392-3.035136 4.294656-0.528384 1.67936-0.550912 3.518464 0.012288 5.269504 0.559104 1.734656 1.6384 3.201024 3.043328 4.237312 1.396736 1.052672 3.115008 1.665024 4.950016 1.701888l47.620096 0.970752 47.622144 0.954368 15.644672 44.673024 15.648768 44.67712c0.59392 1.724416 1.703936 3.15392 3.117056 4.159488 1.417216 1.005568 3.13344 1.579008 4.954112 1.579008 1.830912 0 3.551232-0.571392 4.962304-1.579008 1.419264-1.005568 2.523136-2.435072 3.125248-4.159488l15.642624-44.67712 15.644672-44.673024 47.603712-0.954368 47.603712-0.970752c1.839104-0.036864 3.567616-0.649216 4.972544-1.701888 1.404928-1.038336 2.48832-2.504704 3.045376-4.237312 0.55296-1.75104 0.530432-3.590144 0-5.269504C654.057472 584.030208 653.02528 582.514688 651.556864 581.410816L651.556864 581.410816 651.556864 581.410816zM832.68608 529.158144c-5.955584-22.427648-16.836608-42.2912-30.281728-57.212928-13.441024-14.91968-29.448192-24.899584-45.647872-27.551744 0.16384 0.571392 0.321536 1.161216 0.475136 1.744896 0.147456 0.569344 0.299008 1.159168 0.444416 1.757184 0.147456 0.530432 0.288768 1.058816 0.428032 1.579008 0.139264 0.52224 0.274432 1.048576 0.403456 1.585152 0.851968 3.397632 1.6384 6.823936 2.3552 10.283008 0.720896 3.457024 1.380352 6.94272 1.982464 10.452992 0.114688 0.616448 0.221184 1.232896 0.321536 1.855488s0.200704 1.23904 0.29696 1.882112c0.567296 3.538944 1.077248 7.092224 1.527808 10.663936 0.448512 3.569664 0.831488 7.159808 1.150976 10.774528 0.045056 0.514048 0.08192 1.026048 0.118784 1.527808 0.032768 0.503808 0.059392 1.005568 0.094208 1.507328 0.294912 3.815424 0.530432 7.653376 0.694272 11.513856 0.159744 3.858432 0.251904 7.725056 0.251904 11.599872l0 63.680512 0 63.67232c1.83296 0.380928 3.680256 0.692224 5.515264 0.917504 1.8432 0.208896 3.682304 0.32768 5.50912 0.32768 2.056192 0 4.10624-0.120832 6.13376-0.387072 2.023424-0.270336 4.032512-0.649216 5.996544-1.179648 18.804736-5.02784 33.040384-21.377024 40.740864-43.42784C838.889472 584.671232 840.044544 556.937216 832.68608 529.158144L832.68608 529.158144 832.68608 529.158144z"  horiz-adv-x="1024" />

    
    <glyph glyph-name="jiantou2" unicode="&#58886;" d="M670.676929 118.407016 403.62778 382.637979l265.320785 268.146133c11.776208 11.775184 11.734252 30.908964-0.091074 42.73429l-0.001023 0c-11.825326 11.82635-30.958082 11.867282-42.72815-2.930749L343.100242 407.559579c-3.817955-4.273327-8.205892-9.321296-8.933463-12.045337-4.470825-11.112082-2.232854-24.765033 6.710842-35.987632l286.98213-286.98213c11.875468-8.847505 31.096229-8.893554 42.922578 2.932796C682.606633 87.303624 682.560584 106.523361 670.676929 118.407016z"  horiz-adv-x="1024" />

    
    <glyph glyph-name="update" unicode="&#58933;" d="M959.667298 95.348857l-33.843806 157.556409c-0.064468 0.224104 0 0.388856-0.029676 0.587378l-2.611477 10.637268c-1.434675 5.9055-5.15644 10.539031-9.918907 13.248745-4.767584 2.804882-10.638291 3.686972-16.416901 1.956561l-10.538007-3.067872c-0.164752-0.029676-0.328481-0.163729-0.557702-0.25992L729.110271 226.273722c-11.618619-3.362584-18.664082-15.634072-15.829524-27.412326l2.64627-8.879228c2.838651-11.743462 17.358343-15.370059 28.976962-12.006452l100.167351 32.18912c-2.316765-4.496407-4.728698-8.943696-7.227612-13.325493-50.845015-89.318258-137.646963-153.181775-238.125399-175.209464-94.868671-20.790512-225.597061-3.428076-307.410392 48.981574-81.779561 52.344159-137.517003 136.410809-158.308539 231.274364-3.551896 16.152888-19.510356 26.4013-35.668361 22.844288-16.152888-3.527336-26.400277-19.515473-22.809495-35.669384 24.178679-110.532419 89.252767-207.876468 184.510294-268.90031 95.257527-60.993143 242.041592-81.256652 352.540242-57.046251 116.955712 25.683962 218.022549 100.089579 277.32212 204.126051 0.652869 1.154289 1.288343 2.320858 1.932002 3.479241l18.071587-85.813434c2.870374-11.782348 14.618952-18.568914 26.237571-15.140839l8.384971 0.876973C956.17373 74.072275 962.502879 83.630978 959.667298 95.348857L959.667298 95.348857zM96.961844 500.037806l2.610454-10.654664c1.439792-5.90857 5.15644-10.525728 9.924024-13.252839 4.76349-2.787486 10.637268-3.669576 16.412808-1.957585l10.507308 3.086291c0.199545 0.029676 0.358157 0.177032 0.557702 0.2415l156.64055 49.751101c11.618619 3.393283 18.697851 15.634072 15.859199 27.41335l-2.871397 7.978718c-2.870374 11.747555-17.134239 16.300244-28.717042 12.906961l-100.582813-32.301683c5.130857 11.68411 10.870582 23.094998 17.173125 34.111912 50.90539 89.366354 136.895857 150.277632 237.309824 172.304298 94.863555 20.790512 225.595015 3.41068 307.374576-48.997947 81.814354-52.361555 138.299833-133.48927 159.121044-228.386594 3.558036-16.153912 19.48068-26.350135 35.668361-22.810518 11.294231 2.482541 19.709901 11.048637 22.485107 21.50478 1.206478 4.473895 1.404999 9.30083 0.323365 14.164604-24.213471 110.51093-90.030479 204.973348-185.288007 265.961374-95.291297 61.011562-242.045685 81.261769-352.543312 57.029878-116.891244-25.618471-217.210044-97.05036-276.470729-201.085808-4.179183-7.325849-8.151657-14.809287-11.908214-22.416546l-17.690918 84.010369c-2.905166 11.765975-13.900591 21.262256-25.51921 17.868973l-8.385994-0.916882c-11.618619-3.429099-18.697851-15.69547-15.859199-27.412326l33.805944-157.552316C96.996636 500.41336 96.896352 500.232235 96.961844 500.037806L96.961844 500.037806zM96.961844 500.037806"  horiz-adv-x="1024" />

    
    <glyph glyph-name="zhongguoyidong" unicode="&#58884;" d="M997.55 261.827c-89.487 118.361-223.198 239.442-260.151 269.384-25.935 21.002-51.623 31.529-77.063 31.133-25.436-0.266-50.039-10.783-71.847-29.734-4.314-3.765-10.605-9.363-18.319-16.258-53.156-44.745-217.371-195.738-221.102-199.182-12.489-11.704-28.413-19.323-46.326-18.736-15.78 0.645-33.089 7.697-50.814 24.17-12.24 11.322-68.338 55.371-133.891 129.051-40.315 45.285-73.615 85.757-73.615 85.757s-7.431-15.302-11.571-25.883c-3.461-8.834-0.474-14.404 1.201-16.804 21.883-31.45 121.935-151.153 259.854-270.015 25.245-21.722 51.623-31.481 77.042-31.133 25.457 0.335 50.029 10.831 71.813 29.819 4.335 3.768 10.66 9.298 18.377 16.237 53.118 44.759 152.631 135.991 199.817 179.709 10.069 9.137 17.555 16.015 21.265 19.541 12.476 11.639 28.413 19.289 46.295 18.691 15.824-0.686 32.461-8.496 50.876-24.163 29.457-25.201 77.268-69.441 133.871-129.079 41.602-43.831 73.346-84.855 73.708-85.282 0 0 7.752 15.759 11.865 26.563 3.352 8.847 0.474 13.848-1.283 16.213zM466.196 696.866c-46.169-33.741-236.278-210.33-273.596-252.546 0 0 26.774-29.539 66.915-62.771 10.387-8.916 23.023-7.117 33.867 3.919 73.189 73.619 222.618 205.319 242.729 221.399 56.317 47.862 121.938 52.098 182.033 7.038 145.886-109.285 274.917-281.272 297.168-313.354 0 0 3.253 15.79 5.28 30.020 0.092 0.792 2.813 13.582-4.506 24.32-136.847 197.632-282.464 319.584-338.371 349.99-64.007 34.881-137.861 45.759-211.521-8.015zM312.245 799.986c-93.884-75.878-214.822-187.549-245.514-221.184 0 0 22.88-28.457 58.832-63.648 6.898-5.912 14.234-4.338 20.303 2.099 92.89 89.696 193.556 181.193 251.918 226.4 98.56 76.162 214.077 83.575 326.735-6.451 41.96-33.567 79.179-66.755 133.571-122.754 69.533-75.796 114.913-139.104 164.591-210.459 0 0-0.253 19.118-5.741 44.442-0.922 4.304-2.813 11.23-5.912 17.49-9.943 19.954-53.849 95.276-117.511 169.588-126.218 147.453-205.916 192.321-257.021 219.139-67.717 35.618-199.724 45.974-324.25-54.661zM565.46 59.129c46.182 33.727 236.291 210.289 273.589 252.532 0 0-26.75 29.536-66.915 62.771-10.373 8.95-23.033 7.086-33.871-3.86-73.202-73.673-222.604-205.329-242.695-221.508-56.317-47.78-121.935-52.050-182.013-6.973-145.92 109.298-274.951 281.231-297.168 313.293 0 0-3.304-15.746-5.297-29.962-0.092-0.836-2.813-13.626 4.444-24.344 136.875-197.622 282.494-319.556 338.401-349.932 64.038-34.922 137.875-45.786 211.524 7.984zM719.391-44.001c93.904 75.844 214.835 187.532 245.545 221.181 0 0-22.89 28.515-58.805 63.648-6.936 5.946-14.271 4.366-20.364-2.086-92.87-89.709-193.502-181.241-251.914-226.376-98.499-76.213-214.081-83.548-326.748 6.431-41.899 33.539-79.148 66.741-133.557 122.743-69.516 75.814-114.893 139.148-164.536 210.476 0 0-0.365-18.47 5.69-44.445 0.997-4.284 2.843-11.271 5.912-17.391 9.994-20.098 53.869-95.386 117.507-169.701 126.266-147.453 205.954-192.328 257.055-219.122 67.7-35.625 199.718-45.998 324.215 54.641z"  horiz-adv-x="1024" />

    
    <glyph glyph-name="circle-thin" unicode="&#58968;" d="M512 749.714286q-74.285714 0-142-29.142857t-116.571429-78-78-116.571429T146.285714 384t29.142857-142 78-116.571429 116.571429-78 142-29.142857 142 29.142857 116.571429 78 78 116.571429 29.142857 142-29.142857 142-78 116.571429-116.571429 78T512 749.714286z m438.857143-365.714286q0-119.428571-58.857143-220.285714T732.285714 4 512-54.857143t-220.285714 58.857143T132 163.714286 73.142857 384t58.857143 220.285714T291.714286 764 512 822.857143t220.285714-58.857143T892 604.285714 950.857143 384z"  horiz-adv-x="1024" />

    
    <glyph glyph-name="gerenziliao" unicode="&#59035;" d="M722.549929-36.395578c0.681264 117.976291-90.474097 205.080893-200.777474 205.080893-110.300309 0-204.980647-92.560851-200.888972-214.628817l-45.880976 14.761741c0.475657 135.588907 111.175927 245.899444 246.768925 245.899444 135.59709 0 246.29736-110.316675 246.770971-245.913765L722.549929-36.395578zM521.773477 237.301684c-83.19603 0-150.880519 67.703925-150.880519 150.922459 0 83.19603 67.684489 150.880519 150.880519 150.880519s150.880519-67.684489 150.880519-150.880519C672.653997 305.004586 604.969507 237.301684 521.773477 237.301684zM521.773477 493.073318c-57.814346 0-104.849174-47.034828-104.849174-104.849174 0-57.83685 47.034828-104.891114 104.849174-104.891114s104.849174 47.054264 104.849174 104.891114C626.622652 446.038489 579.587824 493.073318 521.773477 493.073318zM512.323754-127.99284c-69.036788 0-136.020578 13.526055-199.089658 40.201731-60.90663 25.761186-115.602097 62.636385-162.566343 109.601655S66.828306 123.469237 41.066097 184.37689C14.390421 247.44597 0.864366 314.42976 0.864366 383.466548c0 69.036788 13.526055 136.020578 40.201731 199.089658 25.762209 60.90663 62.636385 115.602097 109.601655 162.566343 46.964247 46.96527 101.659714 83.839446 162.566343 109.601655C376.303176 881.400903 443.286966 894.925935 512.323754 894.925935c69.036788 0 136.021601-13.526055 199.090681-40.201731 60.90663-25.762209 115.602097-62.636385 162.566343-109.601655 46.964247-46.964247 83.839446-101.658691 109.601655-162.566343 26.675676-63.06908 40.201731-130.05287 40.201731-199.089658 0-69.036788-13.526055-136.021601-40.201731-199.089658-25.762209-60.907653-62.636385-115.60312-109.601655-162.567366-46.963224-46.964247-101.658691-83.840469-162.56532-109.601655C648.345355-114.466785 581.360542-127.99284 512.323754-127.99284zM512.323754 850.877007c-257.731546 0-467.410459-209.678913-467.410459-467.410459 0-257.730523 209.678913-467.410459 467.410459-467.410459 257.730523 0 467.410459 209.678913 467.410459 467.410459C979.73319 641.198094 770.054277 850.877007 512.323754 850.877007z"  horiz-adv-x="1024" />

    
    <glyph glyph-name="circles-add" unicode="&#58948;" d="M512 810.666667C277.333333 810.666667 85.333333 618.666667 85.333333 384s192-426.666667 426.666667-426.666667 426.666667 192 426.666667 426.666667S746.666667 810.666667 512 810.666667z m0-768c-187.733333 0-341.333333 153.6-341.333333 341.333333s153.6 341.333333 341.333333 341.333333 341.333333-153.6 341.333333-341.333333-153.6-341.333333-341.333333-341.333333zM554.666667 426.666667V554.666667h-85.333334v-128H341.333333v-85.333334h128v-128h85.333334v128h128v85.333334h-128z"  horiz-adv-x="1024" />

    
    <glyph glyph-name="tixing1" unicode="&#59030;" d="M888.832 540.923c-20.511 48.423-49.759 91.872-87.139 129.251s-80.828 66.628-129.251 87.139c-50.123 21.238-103.402 31.918-158.257 31.918s-108.134-10.801-158.257-31.918c-48.423-20.511-91.872-49.759-129.251-87.139-37.379-37.379-66.628-80.828-87.139-129.251-21.238-50.123-31.918-103.402-31.918-158.257s10.801-108.134 31.918-158.257c20.511-48.423 49.759-91.872 87.139-129.251 37.379-37.379 80.828-66.628 129.251-87.139 50.123-21.238 103.402-31.918 158.257-31.918s108.134 10.801 158.257 31.918c48.423 20.511 91.872 49.759 129.251 87.139 37.379 37.379 66.628 80.828 87.139 129.251 21.238 50.123 31.918 103.402 31.918 158.257s-10.801 108.134-31.918 158.257zM514.185 34.353c-192.117 0-348.311 156.194-348.311 348.311s156.194 348.311 348.311 348.311 348.311-156.194 348.311-348.311c0-191.997-156.194-348.311-348.311-348.311zM514.185 593.957c-19.419 0-35.195-15.899-35.195-35.195v-240.299c0-19.419 15.777-35.195 35.195-35.195 19.297 0 35.195 15.777 35.195 35.195v240.299c0 19.297-15.899 35.195-35.195 35.195zM514.185 246.011c-19.419 0-35.195-15.899-35.195-35.195s15.777-35.195 35.195-35.195c19.297 0 35.195 15.899 35.195 35.195s-15.899 35.195-35.195 35.195z"  horiz-adv-x="1024" />

    
    <glyph glyph-name="dianzan" unicode="&#58906;" d="M855.466667 533.333333H661.333333V731.733333C661.333333 787.2 616.533333 832 561.066667 832 512 832 469.333333 800 460.8 753.066667 435.2 614.4 354.133333 490.666667 256 490.666667H149.333333c-46.933333 0-85.333333-40.533333-85.333333-87.466667V42.666667c0-46.933333 38.4-85.333333 85.333333-85.333334h588.8c57.6 0 108.8 38.4 123.733334 93.866667l96 347.733333c19.2 68.266667-32 134.4-102.4 134.4zM256 441.6V0H149.333333c-23.466667 0-42.666667 19.2-42.666666 42.666667V403.2C106.666667 426.666667 125.866667 448 149.333333 448h106.666667v-6.4z m661.333333-29.866667L821.333333 64c-10.666667-38.4-44.8-64-83.2-64H298.666667V452.266667c81.066667 23.466667 170.666667 117.333333 204.8 290.133333 4.266667 27.733333 27.733333 46.933333 57.6 46.933333C593.066667 789.333333 618.666667 763.733333 618.666667 731.733333v-196.266666c0-23.466667 21.333333-44.8 44.8-44.8h192c19.2 0 38.4-8.533333 51.2-25.6 12.8-14.933333 14.933333-34.133333 10.666666-53.333334z"  horiz-adv-x="1024" />

    
    <glyph glyph-name="icon-test" unicode="&#58928;" d="M226.5 823C151 823 89.6 761.6 89.6 686.2c0-68.5 50.6-125.2 116.4-135.1v-583.9c0-15.4 12.5-27.9 27.9-27.9s27.9 12.5 27.9 27.9v587c58.3 15.7 101.5 68.8 101.5 132 0 75.4-61.4 136.8-136.8 136.8z m17.7-215.8c-3.2 1.3-6.6 2-10.3 2-5 0-9.6-1.4-13.7-3.7-41.8 3.2-74.8 38.1-74.8 80.7 0 44.7 36.3 81 81 81s81-36.3 81-81c0.1-38.6-27-70.9-63.2-79zM820.2 207.1V804.6c0 15.4-12.5 27.9-27.9 27.9S764.4 820 764.4 804.6v-599.7c-59.5-14.9-103.7-68.6-103.7-132.6 0-75.4 61.4-136.8 136.8-136.8s136.8 61.4 136.8 136.8c0.1 67.7-49.4 124-114.1 134.8z m-22.7-215.8c-44.7 0-81 36.3-81 81s36.3 81 81 81 81-36.3 81-81c0-44.6-36.3-81-81-81zM541 490.7V804.6c0 15.4-12.5 27.9-27.9 27.9-15.4 0-27.9-12.5-27.9-27.9v-312.1c-64.3-11.2-113.4-67.2-113.4-134.7 0-67.4 49.1-123.5 113.4-134.7V-33c0-15.4 12.5-27.9 27.9-27.9 15.4 0 27.9 12.5 27.9 27.9V225c59.9 14.6 104.5 68.5 104.5 132.8 0 64.4-44.6 118.3-104.5 132.9z m-32.3-213.8c-44.7 0-81 36.3-81 81s36.3 81 81 81 81-36.3 81-81-36.3-81-81-81z"  horiz-adv-x="1024" />

    
    <glyph glyph-name="bookmark" unicode="&#58888;" d="M753.2 694.2v-516.9c0-83.4-50.4-241.2-241.2-241.2-190.8 0-241.2 157.8-241.2 241.2V659.7c0 4.4 0.6 43.7 20.9 84.3 28.4 56.7 82.2 88 151.4 88 69.3 0 123.1-31.3 151.4-88 20.2-40.5 20.9-79.9 20.9-84.3v-448c0-41.6-27.5-103.4-103.4-103.4-75.8 0-103.4 61.8-103.5 103.4V521.8c0 19 15.5 34.5 34.5 34.5 19.1 0 34.5-15.4 34.5-34.5v-310.2c0.5-15.5 6.7-34.5 34.5-34.5s34.1 19 34.5 34.8V659.7c-0.2 17.1-6.1 103.4-103.4 103.4-43.7 0-73-16.3-89.8-49.9-13-26-13.6-53.2-13.6-53.5v-482.5c0.1-17.5 6.1-172.3 172.3-172.3 170.4 0 172.3 165.3 172.3 172.3v517c0 19 15.4 34.5 34.5 34.5s34.4-15.5 34.4-34.5"  horiz-adv-x="1024" />

    
    <glyph glyph-name="bookmark1" unicode="&#58927;" d="M811.446857 822.857143c8.557714 0 17.152-1.718857 25.161143-5.156572a63.268571 63.268571 0 0 0 41.142857-58.843428v-736.585143a63.268571 63.268571 0 0 0-41.142857-58.843429 63.158857 63.158857 0 0 0-25.161143-4.571428 69.485714 69.485714 0 0 0-47.433143 18.285714L512 219.428571l-252.013714-242.285714a69.997714 69.997714 0 0 0-47.433143-18.870857c-8.557714 0-17.152 1.718857-25.161143 5.156571a63.268571 63.268571 0 0 0-41.142857 58.843429V758.857143a63.268571 63.268571 0 0 0 41.142857 58.843428c8.009143 3.437714 16.566857 5.156571 25.161143 5.156572h598.857143z"  horiz-adv-x="1024" />

    
    <glyph glyph-name="touxiang1" unicode="&#58883;" d="M512 668.5c-74.1 0-134.3-60.3-134.3-134.3s60.2-134.4 134.3-134.4 134.3 60.3 134.3 134.3-60.2 134.4-134.3 134.4zM512 896c-282.8 0-512-229.2-512-512s229.2-512 512-512c282.8 0 512 229.2 512 512s-229.2 512-512 512zM749.9 115.9c-14 0-25.3 11.3-25.3 25.3 0 116-93.4 206.8-212.6 206.8s-212.6-90.8-212.6-206.8c0-14-11.3-25.3-25.3-25.3s-25.3 11.3-25.3 25.3c0 70.1 27.5 135.3 77.4 183.6 24.5 23.7 53.2 42.1 84.5 54.6-10.5 6.9-20.3 14.9-29.4 24-34.9 34.9-54.2 81.4-54.2 130.8 0 49.4 19.2 95.9 54.2 130.8 34.9 34.9 81.4 54.2 130.8 54.2 49.4 0 95.9-19.2 130.8-54.2 34.8-35 54.1-81.5 54.1-130.9 0-49.4-19.2-95.9-54.2-130.8-9.1-9.1-18.9-17.1-29.4-24 31.3-12.5 59.9-30.9 84.5-54.6 49.9-48.2 77.4-113.4 77.4-183.6-0.1-13.9-11.4-25.2-25.4-25.2z"  horiz-adv-x="1024" />

    
    <glyph glyph-name="konggouwuche1" unicode="&#58882;" d="M331.008 112q19.008 0 36-7.008t29.504-19.488 20-29.504 7.488-36-7.488-36-20-29.504-29.504-20-36-7.488q-20 0-36.992 7.488t-29.504 20-20 29.504-7.488 36 7.488 36 20 29.504 29.504 19.488T331.008 112z m416-2.016q19.008 0 36.512-7.008t30.016-19.488 20-29.504 7.488-36-7.488-36-20-29.504-30.016-20T747.008-75.008t-36 7.488-29.504 20-20 29.504-7.488 36 7.488 36 20 29.504T711.008 102.976t36 7.008z m168 568q28 0 43.488-7.488T980.512 652t6.016-23.488-3.488-21.504-12.992-36.992-21.504-61.504-23.008-66.496-18.496-52q-12.992-40-32.512-55.488t-48.512-15.488H301.024l14.016-90.016h504.992q48 0 48-40.992 0-20-9.504-35.008t-37.504-14.016h-524q-20 0-33.504 8.992t-22.496 23.488-14.496 31.488-8.512 32q-0.992 6.016-5.504 28.992t-11.008 57.504T187.008 398.464t-16 85.504Q152 584.96 128 708.96H52.992q-15.008 0-24.992 7.488T11.488 734.464 2.496 756.96t-2.496 22.016q0 20 13.504 32.992t36.512 12H151.008q20 0 32-6.016t19.008-15.008 10.016-18.496 4.992-16.512q2.016-8 4-22.496t4-29.504q3.008-18.016 6.016-38.016h684z m-36.992-88.992l-626.016 2.016L287.008 410.016l523.008-0.992z"  horiz-adv-x="1027" />

    
    <glyph glyph-name="shebei" unicode="&#58905;" d="M102.4 742.4c-36.4544 0-51.2-15.1552-51.2-51.2v-563.2c0-54.1696 32.1024-89.344 51.2-102.4h307.2c-20.3776 7.5776-21.9648 2.6112 0 0-23.552-18.8416-32.1024-35.84-51.2-51.2 17.4592 13.6704 13.7216 8.192 0 0 6.7584 1.024 3.584-7.7824 0 0 3.584-39.1168 19.0976-51.2 51.2-51.2h204.8c41.216 0 52.992 15.9232 51.2 51.2 1.792-7.7824 0.1536-0.6144 0 0-8.3968 9.8304-9.984 9.8304 0 0-15.36 14.7968-20.1728 20.2752 0 51.2h256c16.9472 14.6944 51.2 47.6672 51.2 102.4V691.2c0 35.6864-15.104 51.2-51.2 51.2H102.4z m819.2-563.2H102.4V691.2h819.2v-512z"  horiz-adv-x="1024" />

    
    <glyph glyph-name="ChinaMobile" unicode="&#58909;" d="M827.196 318.399l-65.213 63.272s-15.139 11.257-32.218-5.046c0 0-62.884-61.331-116.452-110.629-50.851-46.193-101.701-93.938-120.722-107.524 0 0-82.293-84.234-186.556-1.941 0 0-142.032 111.406-282.551 302.775l-4.596-22.514s-5.24-18.632 7.212-36.1c0 0 109.721-161.868 244.766-277.932 0 0 67.309-71.812 153.406-87.339 0 0 71.036-19.409 138.578 34.936 32.995 25.231 104.807 92.385 164.973 149.447 55.509 52.792 99.372 98.596 99.372 98.596M951.024 185.644l-57.45 63.272s-6.987 9.316-20.573-2.329-190.593-183.994-258.135-230.575c-38.817-31.054-80.352-46.581-126.544-50.462-34.547-3.882-71.812 3.882-111.561 19.409-43.242 19.409-109.271 73.753-171.107 136.637-43.708 45.416-87.184 95.491-123.711 144.012-24.688 32.995-48.498 65.989-66.416 94.714 0 0 0-39.982 17.483-73.753 0 0 72.34-138.19 213.518-266.675 13.78-15.527 134.191-135.861 251.109-131.979 0 0 109.077-7.763 208.449 73.753 16.303 15.527 190.593 164.973 244.937 223.976M197.774 449.601l65.329-63.272s15.022-11.257 32.218 5.046c0 0 62.69 61.331 116.141 110.629 50.851 46.076 101.701 93.821 120.722 107.407 0 0 82.293 85.010 186.711 1.941 0 0 142.459-111.289 282.59-302.658l4.658 22.514s5.046 18.632-7.375 36.1c0 0-109.465 161.752-244.549 277.815 0 0-67.542 71.424-153.716 89.28 0 0-71.036 16.691-138.19-36.1-32.995-26.008-105.078-93.161-165.012-150.223-55.664-52.675-99.528-98.479-99.528-98.479M73.636 582.24l57.411-63.272s7.22-9.316 20.69 2.329c13.47 11.645 190.709 183.606 258.174 232.127 38.817 27.56 80.352 45.416 126.156 48.522 34.936 2.717 72.2-1.941 111.794-19.020 43.475-19.409 109.465-72.588 171.184-137.025 43.475-45.028 87.339-95.102 123.827-143.508 24.455-32.995 48.522-65.989 66.378-94.714 0 0 0 39.982-17.468 73.753 0 0-72.588 138.073-213.495 268.499-13.974 12.422-134.308 133.151-251.148 130.434 0 0-109.077 6.211-208.526-75.313-16.148-13.586-190.515-163.809-244.976-222.811M52.636 542.258s100.731-133.027 211.709-221.142c0 0 42.039-36.1 87.067 4.658l230.846 209.497s69.483 69.483 147.894 0.776c0 0 164.197-146.225 254.253-268.887 0 0 5.434-4.27 0-12.033-4.27-8.152-13.198-29.501-13.198-29.501s-98.596 127.709-212.719 222.035c0 0-44.252 33.771-82.681-1.941-38.041-35.712-218.929-201.074-247.654-222.035-28.725-20.961-76.315-43.087-143.624 17.080-52.636 46.969-190.321 177.007-244.51 258.911 0 0-4.879 4.658-0.97 13.47 5.59 10.481 13.586 29.113 13.586 29.113M1376.073 31.539c-53.568 0-97.043 42.699-97.043 97.82 0 54.344 43.475 98.208 97.043 98.208 36.1 0 67.542-20.185 84.234-49.686h38.817c-19.020 49.298-66.766 84.622-122.663 84.622-72.976 0-131.979-59.39-131.979-132.755 0-74.917 59.002-133.143 131.979-133.143 56.285 0 104.807 34.936 123.439 85.398h-38.429c-16.303-31.054-48.522-50.462-85.398-50.462M3192.722 161.189c-21.35 29.113-57.061 26.396-57.061 26.396-20.573 0-39.982-8.928-52.403-19.409-19.409-17.080-25.619-42.699-25.619-42.699-16.303-62.884 12.81-101.701 12.81-101.701 14.362-19.409 43.087-27.172 65.601-27.172 39.205-3.882 67.93 11.645 67.93 11.645v31.054c-114.511-42.699-115.676 42.699-115.676 42.699h123.439c1.165 38.429-7.375 63.272-19.020 79.187zM3091.409 113.055s7.763 42.699 44.252 42.699c36.1 0 37.653-42.699 37.653-42.699h-81.904M2839.484 180.209c-46.969 22.514-79.575-10.092-79.575-10.092v105.583h-37.265v-279.096h28.337l5.046 19.409c16.303-19.409 45.416-23.29 45.416-23.29 25.231 0 44.64 11.645 58.226 27.172 15.915 15.527 24.067 42.699 25.231 54.344 3.494 27.56 2.717 82.681-45.416 105.971zM2804.161 27.657c-33.383 0-44.64 19.409-44.64 19.409v90.056s16.303 18.244 43.864 18.244c27.172 0 39.982-21.35 43.475-53.18 3.494-31.83-4.658-74.529-42.699-74.529M2601.534 187.196c-52.792 0-95.879-43.087-95.879-96.267 0-51.627 43.087-94.326 95.879-94.326s95.879 42.699 95.879 94.326c0 53.18-43.087 96.267-95.879 96.267zM2601.534 27.657c-34.936 0-63.272 27.172-63.272 63.272 0 35.324 28.337 63.66 63.272 63.66s63.272-28.337 63.272-63.66c0-36.1-28.337-63.272-63.272-63.272M2353.492 66.475l-78.799 188.652h-49.686v-258.523h37.265v197.58l81.904-197.58h18.244l81.904 196.027v-196.027h37.653v258.523h-49.298l-79.187-188.652M2077.113 182.15c-43.864 15.915-90.832-5.823-90.832-5.823v-33.771s97.043 43.475 97.043-32.995l-0.388-1.941s-53.18 15.915-82.293-1.941c0 0-45.804-23.679-25.231-78.023 0 0 15.915-34.936 57.45-34.936 14.362 0 31.442 7.763 51.627 19.409l3.105-15.527h31.442v119.169s3.882 49.298-41.923 66.378zM2081.771 43.184s-16.691-15.527-48.91-15.527c0 0-29.889 0-25.231 31.054 4.27 31.054 42.699 27.172 74.141 19.409v-34.936M1900.494 185.644s-44.64 11.645-73.365-23.679l-5.823 21.738h-27.948v-183.218h35.324v123.051c6.987 11.257 26.008 36.876 59.39 31.442 0 0 19.409-3.105 19.409-35.324v-119.169h36.876v118.005s5.046 55.121-43.864 67.154M1636.537 185.644s-43.087 11.257-71.424-21.738v112.57h-36.876v-275.991h36.876v124.215c6.211 12.033 24.067 37.265 59.002 30.277 0 0 19.409-3.105 19.409-35.324v-119.169h36.876v118.005s4.658 55.121-43.864 67.154M2912.849 215.145h36.876v40.37h-36.876v-40.37zM2989.707-3.397h34.936v279.873h-34.936v-279.873zM2912.849-3.397h36.876v185.547h-36.876v-185.547zM1718.829 215.145h36.488v40.37h-36.488v-40.37zM1718.829-3.397h36.488v185.547h-36.488v-185.547zM3092.961 723.923l1.941 95.491h-48.522s0-42.699 0.388-95.491h-59.779v-43.475h60.167c0.776-33.383-0.388-67.542-2.329-91.221-4.27-54.344-12.81-76.47-12.81-76.47-23.679-89.94-93.938-129.533-93.938-129.533l34.936-32.995c124.992 80.352 117.616 258.795 117.616 258.795l1.553 71.424h77.635l-9.316-235.893c0-29.501-28.725-27.948-28.725-27.948h-53.956l8.928-46.581h51.239c65.989 0 68.318 67.154 68.318 67.154l10.092 286.743h-123.439M2946.232 425.146l44.252 17.080c-9.316 22.902-53.568 120.605-53.568 120.605l-40.758-17.468c11.257-24.067 22.514-50.734 31.442-72.86-20.185-4.658-73.365-17.080-99.372-25.619 0 0 12.81 20.961 36.1 86.058 19.409 53.18 22.902 69.095 30.666 79.187h105.583v43.475h-229.798v-43.475h74.141c-3.494-13.586-15.915-62.496-35.712-109.736-11.257-26.784-23.29-52.403-38.817-71.812l10.869-34.159s116.064 35.324 160.704 39.594c2.717-6.987 4.27-10.869 4.27-10.869M2790.575 732.463h194.086v43.864h-194.086v-43.864zM2594.547 585.733c3.882 6.987 7.375 13.974 10.481 21.35l-42.699 6.987c6.599 3.494 12.81 7.375 18.632 11.257 85.010 55.897 112.958 118.393 112.958 118.393v37.265h-146.341c5.823 9.316 11.257 19.020 15.527 28.337l-42.311 16.303s-34.547-75.306-102.478-126.544l36.876-28.337s32.218 29.889 63.66 69.483h124.992c-17.080-27.172-41.923-49.686-68.318-68.318l-55.121 45.804-29.113-30.277 46.581-38.817c-56.673-31.442-110.241-45.416-110.241-45.416l27.948-35.712c40.37 15.527 70.647 27.56 97.043 41.146-6.987-12.033-24.843-39.594-57.45-69.483-19.797-18.244-46.581-37.924-77.635-54.616l33.383-33.383s66.378 34.159 115.287 93.433h93.938c-10.092-44.912-38.817-76.742-73.365-98.479l-50.462 49.298-31.83-26.008s28.337-26.784 43.475-43.475c-67.93-28.337-140.13-30.277-140.13-30.277l19.020-37.653c91.221 6.987 152.94 32.218 196.027 64.825 71.424 54.344 88.503 122.934 88.503 122.934v39.982h-116.84M2416.376 515.862l29.889 34.936-75.694 64.437v22.514h63.66v40.758h-63.66v65.601c29.501 6.987 65.213 13.974 65.213 13.974l-9.316 43.475c-38.429-12.422-166.526-26.008-166.526-26.008l6.599-43.087 59.39 9.704v-63.66h-71.812v-40.758h67.154c-5.434-17.080-28.337-86.174-75.306-151.659l32.995-35.712s27.172 43.864 46.969 88.387v-182.325h44.64v203.286l45.804-43.864M2043.73 495.017l35.324 27.832c-18.632 21.738-52.403 59.779-52.403 59.779l-32.995-24.843c28.725-31.442 50.074-62.768 50.074-62.768M1982.787 489.583v94.986h98.596v40.758h-98.596v59.779h107.136v40.758h-257.747v-40.758h107.524v-59.779h-99.372v-40.758h99.372v-94.986h-114.899v-40.758h272.109v40.758h-114.123M2167.557 804.275h-408.746v-433.861h408.746v433.861zM1758.811 804.275zM2122.529 411.56h-319.854v350.404h319.854v-350.404zM1648.958 732.463h-178.56v86.563h-46.969v-86.563h-177.007v-244.044h177.007v-133.143h46.969v133.143h178.56v244.044zM1423.43 531.389h-131.202v157.986h131.202v-157.986zM1292.227 531.389zM1603.154 531.389h-132.755v157.986h132.755v-157.986z"  horiz-adv-x="3231" />

    
    <glyph glyph-name="huiyuanqia" unicode="&#59438;" d="M367.168 299.936a22.4 22.4 0 0 0-20.768 13.024l-53.216 122.56a19.616 19.616 0 0 0 2.176 19.456 22.816 22.816 0 0 0 18.56 9.184c9.216 0 17.632-5.344 20.96-13.28l36.032-86.176 35.424 86.08a22.528 22.528 0 0 0 20.896 13.376c8.064 0 15.104-3.36 19.328-9.216a19.52 19.52 0 0 0 2.112-19.488l-53.92-122.592a22.368 22.368 0 0 0-20.704-12.96h-6.88v0.032zM536.96 302.56c-10.464 0-19.008 7.968-19.008 17.76v125.024c0 9.792 8.512 17.76 19.008 17.76 10.496 0 19.008-7.968 19.008-17.76v-124.992c0.032-9.824-8.512-17.792-19.008-17.792zM641.952 299.04c-9.28 0-16.832 8.288-16.832 18.432V440.32c0 13.984 10.4 25.376 23.168 25.376h44.576c31.872-1.696 51.104-20.256 54.24-52.256-0.256-21.088-7.936-54.464-55.776-55.2h-32.544v-40.768c0-10.176-7.552-18.432-16.832-18.432z m46.528 94.304c20.288 0.448 23.36 9.76 23.648 19.744-0.512 8.672-3.744 17.056-23.872 17.536h-29.504v-37.28h29.728zM227.968 83.68c-55.136 0-100 45.728-100 101.92V582.4c0 56.192 44.864 101.92 100 101.92h568.064c55.136 0 100-45.728 100-101.92v-396.8c0-56.192-44.864-101.92-100-101.92H227.968z m0 547.808c-26.56 0-48.192-22.016-48.192-49.12v-396.8c0-27.072 21.6-49.12 48.192-49.12h568.064c26.56 0 48.16 22.016 48.16 49.12V582.4c0 27.072-21.6 49.12-48.16 49.12H227.968v-0.032zM258.688 521.792c-13.248 0-24 11.872-24 26.496 0 14.624 10.784 26.496 24 26.496h500.064c13.248 0 24-11.872 24-26.496 0-14.624-10.784-26.496-24-26.496H258.688zM258.464 189.344a26.496 26.496 0 0 0 0 52.992h119.488a26.496 26.496 0 0 0 0-52.992H258.464z"  horiz-adv-x="1024" />

    
    <glyph glyph-name="bianji1" unicode="&#58939;" d="M482.3 800H155.4C122.6 800 96 773.4 96 740.6v-713.1c0-32.8 26.6-59.4 59.4-59.4h713.1c32.8 0 59.4 26.6 59.4 59.4V354.3c0 7.6-2.9 15.2-8.7 21-5.8 5.8-13.4 8.7-21 8.7s-15.2-2.9-21-8.7c-5.8-5.8-8.7-13.4-8.7-21v-326.9H155.4V740.6h326.9c7.6 0 15.2 2.9 21 8.7 5.8 5.8 8.7 13.4 8.7 21s-2.9 15.2-8.7 21c-5.8 5.8-13.4 8.7-21 8.7zM838.9 740.6c4.6 0 13.4-1.1 21-8.7 11.6-11.6 11.6-30.4 0-42L515 345l-53.4-11.6 11.5 53.7 344.8 344.8c7.5 7.5 16.4 8.7 21 8.7m0 59.4c-22.8 0-45.6-8.7-63-26.1L431.1 429.1c-8.1-8.1-13.7-18.4-16.1-29.6l-21.5-100.8c-2.6-18.2 11.6-33.9 29.3-33.9 1.4 0 2.8 0.1 4.3 0.3l100.6 21.8c11.2 2.4 21.4 8 29.4 16.1l344.8 344.8c34.8 34.8 34.8 91.3 0 126.1-17.4 17.4-40.2 26.1-63 26.1z"  horiz-adv-x="1024" />

    
    <glyph glyph-name="saoyisaoerweimasaomasaomiao" unicode="&#58894;" d="M836.861 709.131c0 23.815-22.973 47.164-47.142 47.164H614.601V814.786h152.072c76.049-0.07 129.052-42.908 128.68-116.98v-163.773h-58.491V709.131zM181.772 709.502v-175.469h-58.489V697.806c0 74.083 42.871 116.98 116.98 116.98h163.773v-58.492H228.564c-23.746 0.001-46.792-23.639-46.792-46.792zM181.772 147.776c0-22.542 22.939-46.571 47.925-46.571h174.339v-58.488H228.564c-74.094 0-105.28 42.886-105.28 116.98V323.469h58.489v-175.693zM836.861 148.336V323.469h58.491v-163.772c0.07-74.094-42.558-116.932-116.98-116.98H614.601v58.488h174.838c24.504 0 47.422 23.492 47.422 47.131zM1000.633 428.727c0-19.396-15.724-35.119-35.119-35.119H53.119C33.723 393.608 18 409.332 18 428.727c0 19.396 15.724 35.119 35.119 35.119h912.395c19.395 0 35.119-15.723 35.119-35.119z"  horiz-adv-x="1024" />

    
    <glyph glyph-name="gouwuche" unicode="&#58881;" d="M347.136 112.63999999999999q19.456 0 36.864-7.168t30.72-19.968 20.48-30.208 7.168-36.864-7.168-36.864-20.48-30.208-30.72-20.48-36.864-7.68q-20.48 0-37.376 7.68t-30.208 20.48-20.48 30.208-7.168 36.864 7.168 36.864 20.48 30.208 30.208 19.968 37.376 7.168zM773.12 110.59199999999998q19.456 0 37.376-7.168t30.72-19.968 20.48-30.208 7.68-36.864-7.68-36.864-20.48-30.208-30.72-20.48-37.376-7.68-36.864 7.68-30.208 20.48-20.48 30.208-7.68 36.864 7.68 36.864 20.48 30.208 30.208 19.968 36.864 7.168zM945.152 692.2239999999999q28.672 0 44.544-7.68t22.528-18.944 6.144-24.064-3.584-22.016-12.8-37.888-22.016-62.976-24.064-68.096-17.92-53.248q-13.312-40.96-33.792-56.832t-50.176-15.872l-34.816 0-66.56 0-87.04 0-95.232 0-253.952 0 15.36-92.16 516.096 0q49.152 0 49.152-41.984 0-20.48-9.728-35.328t-38.4-14.848l-49.152 0-95.232 0-117.76 0-119.808 0-98.304 0-56.32 0q-20.48 0-34.304 9.216t-23.04 24.064-14.848 32.256-8.704 32.768q-1.024 6.144-5.632 29.696t-11.264 58.88-14.848 78.848-16.384 87.552q-19.456 103.424-44.032 230.4l-76.8 0q-15.36 0-25.6 7.68t-16.896 18.432-9.216 23.04-2.56 22.528q0 20.48 13.824 33.792t37.376 13.312l22.528 0 20.48 0 25.6 0 34.816 0q20.48 0 32.768-6.144t19.456-15.36 10.24-19.456 5.12-17.408q2.048-8.192 4.096-23.04t4.096-30.208q3.072-18.432 6.144-38.912l700.416 0z"  horiz-adv-x="1024" />

    
    <glyph glyph-name="shangchuan" unicode="&#59274;" d="M544 694.4v-470.4c0-19.2-12.8-32-32-32s-32 12.8-32 32v460.8l-121.6-121.6c-12.8-12.8-32-12.8-44.8 0-12.8 12.8-12.8 32 0 44.8l156.8 156.8c25.6 25.6 64 25.6 89.6 0l156.8-156.8c12.8-12.8 12.8-32 0-44.8-12.8-12.8-32-12.8-44.8 0l-128 131.2z m288-406.4c0 19.2 12.8 32 32 32s32-12.8 32-32v-160c0-54.4-41.6-96-96-96h-576c-54.4 0-96 41.6-96 96v160c0 19.2 12.8 32 32 32s32-12.8 32-32v-160c0-19.2 12.8-32 32-32h576c19.2 0 32 12.8 32 32v160z"  horiz-adv-x="1024" />

    
    <glyph glyph-name="fenxiang" unicode="&#59093;" d="M506.8 788.9C286 788.9 107.1 610 107.1 389.2S286-10.5 506.8-10.5s399.7 178.9 399.7 399.7c0.1 220.7-178.9 399.7-399.7 399.7z m243.7-404.2L538.9 227.1c-3.7-2.9-8.4-4.6-13.5-4.6-11.8 0-21.4 9.1-22.2 20.6v77.7h-59c-73.3 0-139.6-28.4-188.9-74.8-1.6-1.2-3.5-2-5.7-2-5.1 0-9.3 4.1-9.3 9.2 0 0.5 0.1 1 0.1 1.5 24.7 121.4 134.2 213.5 262.8 218.6v78.4c0.9 11.5 10.4 20.6 22.2 20.6 4.8 0 9.4-1.6 13-4.3l212.3-158.1c3.5-3.1 5.8-7.6 5.8-12.5 0.1-5.1-2.3-9.6-6-12.7z"  horiz-adv-x="1024" />

    
    <glyph glyph-name="xiaofeijilu" unicode="&#58923;" d="M744.7552 661.504L595.1488 405.4016h106.0864v-77.0048h-131.072v-58.4704h130.9696v-77.824H570.1632v-106.8032H451.8912V192.1024H316.3136v77.824h135.4752v58.4704H316.3136v77.0048h109.056L279.8592 661.504h126.5664c57.344-118.5792 93.5936-196.8128 108.6464-234.496h2.56c1.9456 5.4272 4.3008 12.288 7.0656 20.48 4.5056 13.1072 22.3232 51.8144 53.5552 116.1216l46.4896 97.8944h120.0128zM512.3072 45.7728c0.1024 0 0.1024 0 0 0z m0 844.8c-279.9616 0-506.88-226.9184-506.88-506.88s226.9184-506.88 506.88-506.88 506.88 226.9184 506.88 506.88c0 279.8592-226.9184 506.88-506.88 506.88z m0-929.28c-233.2672 0-422.4 189.1328-422.4 422.4S279.04 806.0928 512.3072 806.0928s422.4-189.1328 422.4-422.4c0-233.3696-189.1328-422.4-422.4-422.4z"  horiz-adv-x="1024" />

    
    <glyph glyph-name="rongyu" unicode="&#58889;" d="M833.021 134.28l-86.936 150.433c38.496 50.06 61.214 112.121 61.214 179.625 0 81.691-33.243 155.387-86.571 208.725-53.146 53.52-127.325 86.661-208.451 86.661-81.5 0-155.487-33.142-208.824-86.661-53.52-53.338-86.753-127.034-86.753-208.725 0-67.503 22.717-129.565 61.405-179.625L190.968 134.28c-3.004-4.408-3.75-9.562-2.631-14.533 2.631-9.688 12.21-15.041 21.597-12.782l117.738 31.467 31.176-117.093c1.129-4.333 3.76-8.357 8.267-10.798 8.268-4.606 18.966-2.057 23.855 6.465l88.63 154.185c10.707-1.512 21.597-1.875 32.678-1.875 10.698 0 21.597 0.363 31.73 1.875l89.395-154.186c4.697-8.521 15.406-11.071 23.854-6.465 3.934 2.44 6.756 6.465 8.068 10.798l31.557 117.093 117.183-31.467c9.379-2.259 19.339 3.095 21.215 12.782 1.875 4.973 0.565 10.126-2.259 14.534z m-451.265-62.899l-24.966 93.346c-2.823 9.179-12.401 15.006-21.597 12.474l-0.564-0.182-92.399-24.784 59.911 104.6 1.312-1.038c37.75-38.224 85.633-65.448 139.525-78.596l-61.222-105.82z m130.521 156.718c-65.538 0-124.694 26.568-167.324 69.106-42.812 42.903-69.48 102.067-69.48 167.132 0 65.357 26.668 124.594 69.48 167.333 42.63 43.085 101.786 69.38 167.324 69.38 65.347 0 124.512-26.295 166.941-69.38 43.013-42.739 69.672-101.976 69.672-167.333 0-65.065-26.659-124.229-69.672-167.132-42.429-42.538-101.594-69.106-166.941-69.106z m176.721-51.08l-0.201 0.182c-9.378 2.532-19.147-3.295-21.597-12.474l-24.593-93.346L581.011 177.2c53.902 13.147 101.978 40.372 139.718 78.596l1.12 1.038 60.294-104.6-93.145 24.785z m-52.592 411.913c-31.922 31.648-76.055 51.461-124.129 51.461-48.448 0-92.771-19.813-124.312-51.461-32.305-31.922-51.835-75.863-51.835-124.594 0-48.347 19.53-92.489 51.835-124.229 31.54-32.014 75.863-51.644 124.312-51.644 48.074 0 92.207 19.63 124.129 51.644 31.559 31.74 51.645 75.882 51.645 124.229 0 48.73-20.086 92.671-51.645 124.594z m-24.974-224.04c-25.357-25.165-60.648-41.026-99.154-41.026-38.87 0-74.179 15.861-99.71 41.026-25.357 25.64-41.51 60.677-41.51 99.446 0 38.697 16.153 74.079 41.51 99.628 25.531 25.348 60.84 41.118 99.71 41.118 38.506 0 73.797-15.77 99.154-41.118 25.357-25.55 41.127-60.931 41.127-99.628 0-38.77-15.77-73.807-41.127-99.446zM512 559.903l28.887-58.53 64.592-9.386-46.74-45.559 11.033-64.33L512 412.471l-57.772-30.373 11.033 64.33-46.739 45.559 64.592 9.386z"  horiz-adv-x="1024" />

    
    <glyph glyph-name="zhandian" unicode="&#58926;" d="M511.99234 17.609408c70.307405 0 368.451247 311.013361 368.451247 512.880949S715.453297 896 511.99234 896 143.541093 732.327304 143.541093 530.490357s291.29542-512.880949 368.451247-512.880949z m0 805.049658c162.784087 0 294.742613-130.901387 294.742612-292.413843S557.357392 93.891946 511.99234 93.891946c-34.303395 0-294.788575 274.871463-294.788576 436.337957S349.177611 822.659066 511.99234 822.659066z m0 0M661.186828 530.153298a146.00775 146.00775 0 0 1-73.708635 126.626869 148.428445 148.428445 0 0 1-147.401948 0 146.00775 146.00775 0 0 1-73.693313-126.65751c0-80.756228 66.002244-146.206921 147.417268-146.206922s147.401948 65.481335 147.386628 146.237563z m-221.06462 0a72.957913 72.957913 0 0 0 35.866122 66.002245 74.229544 74.229544 0 0 0 75.577779 0 72.973233 72.973233 0 0 0 35.83548-66.032886 73.739276 73.739276 0 0 0-147.26406 0z m292.934751-658.137977H290.92772a36.770053 36.770053 0 0 0-36.770053 36.55556 36.770053 36.770053 0 0 0 36.770053 36.494278h442.175202a36.524919 36.524919 0 1 0 0-73.049838z m0 0"  horiz-adv-x="1024" />

    
    <glyph glyph-name="youxiajiaogouxuan" unicode="&#59034;" d="M256-128h768V640l-768-768z m493.6 108.8L704-64l-45.6 45.6L576 64l45.6 45.6 82.4-83.2 210.4 210.4 45.6-45.6-210.4-210.4z"  horiz-adv-x="1024" />

    
    <glyph glyph-name="sousuo" unicode="&#59016;" d="M837.8 2.3L684.5 267.9c54.9 41.5 94.2 99.8 112.4 167.4 21.5 80.3 10.5 164.3-31.1 236.3S657.1 795.2 576.7 816.7c-80.3 21.5-164.3 10.5-236.3-31.1S216.8 676.9 195.3 596.5s-10.5-164.3 31.1-236.3 108.7-123.6 189.1-145.1c26.8-7.2 54-10.7 81.1-10.7 39.2 0 78.1 7.5 114.8 22.2l153.7-266.2 72.7 41.9zM437.2 296.2c-58.7 15.7-107.7 53.3-138.1 105.9-62.7 108.6-25.4 247.9 83.2 310.6 35.7 20.6 74.8 30.4 113.3 30.4 78.6 0 155.2-40.8 197.3-113.6 62.7-108.6 25.4-247.9-83.2-310.6-52.5-30.4-113.8-38.4-172.5-22.7z"  horiz-adv-x="1024" />

    
    <glyph glyph-name="arrow-left" unicode="&#58973;" d="M658.10806201 383.68024905000004l-378.20582873 378.2110069c-15.89692997 15.88398459-15.89692997 41.6660088 0 57.55128793 15.88398459 15.89692997 41.6660088 15.89692997 57.55128794 0l406.98729813-406.98729813c15.89692997-15.88398459 15.89692997-41.6660088 1e-8-57.55128794l-406.98729814-406.98600359c-7.94328684-7.94846498-18.3604363-11.92399202-28.77499669-11.92399203s-20.83170987 3.97552703-28.77499671 11.92399203c-15.89692997 15.88398459-15.89692997 41.6660088 0 57.55128793l378.20582875 378.21230143z"  horiz-adv-x="1024" />

    
    <glyph glyph-name="shuaxin1" unicode="&#58921;" d="M945.38 561.09c-13.016 7.165-29.368 2.39-36.511-10.627L852.23 447.324c-4.396 26.531-11.39 52.54-21.14 77.763-2.343 6.061-4.881 12.012-7.507 17.912-0.141 0.318-0.291 0.631-0.432 0.949a388.821 388.821 0 0 1-6.244 13.264 400.752 400.752 0 0 1-2.984 5.932 391.27 391.27 0 0 1-3.602 6.816c-12.563 23.439-27.371 45.58-44.485 66.131-39.521 47.452-89.046 83.94-143.707 108.15-50.04 22.467-104.957 34.824-161.577 34.824-23.284 0-46.067-2.129-68.261-5.992-0.142-0.024-0.284-0.052-0.427-0.077a393.71 393.71 0 0 1-38.842-8.846c-2.233-0.626-4.467-1.238-6.693-1.905-2.962-0.891-5.9-1.833-8.832-2.791-1.32-0.43-2.648-0.808-3.965-1.253-1.194-0.403-2.35-0.878-3.539-1.291a404.623 404.623 0 0 1-19.891-7.53 397.628 397.628 0 0 1-7.302-3.076 401.992 401.992 0 0 1-12.965-5.871c-0.797-0.381-1.593-0.76-2.387-1.146-74.672-35.988-135.724-94.008-175.68-167.622-0.51-0.934-0.984-1.889-1.488-2.828-1.886-3.541-3.818-7.049-5.606-10.659-0.478-0.965-0.888-1.95-1.358-2.918-1.009-2.071-1.945-4.182-2.919-6.273-1.725-3.713-3.453-7.422-5.058-11.169-0.974-2.273-1.869-4.586-2.801-6.88-1.547-3.804-3.095-7.606-4.52-11.442-0.653-1.762-1.242-3.553-1.87-5.326-1.619-4.557-3.203-9.119-4.65-13.715-0.253-0.806-0.475-1.625-0.723-2.433-17.448-56.662-21.852-116.071-13.001-174.615 0.204-1.376 0.423-2.746 0.641-4.118 0.725-4.48 1.521-8.951 2.403-13.418a391.43 391.43 0 0 1 1.666-8.076c0.694-3.173 1.426-6.34 2.199-9.504 0.891-3.671 1.832-7.32 2.825-10.951a399.982 399.982 0 0 1 2.016-7.083 393.197 393.197 0 0 1 3.75-12.068c0.358-1.089 0.651-2.189 1.018-3.277 0.409-1.213 0.892-2.388 1.312-3.595a404.384 404.384 0 0 1 7.532-19.887 396.914 396.914 0 0 1 3.035-7.204 401.073 401.073 0 0 1 5.912-13.055c0.367-0.767 0.733-1.535 1.104-2.299 35.986-74.689 94.015-135.756 167.642-175.72 0.934-0.51 1.889-0.984 2.828-1.488 3.541-1.886 7.049-3.818 10.66-5.606 0.871-0.432 1.765-0.789 2.639-1.215 4.207-2.053 8.486-3.972 12.773-5.879 2.118-0.94 4.209-1.968 6.338-2.87a395.242 395.242 0 0 1 18.926-7.432c3.432-1.254 6.898-2.355 10.354-3.511 3.034-1.011 6.054-2.052 9.119-2.99 4.349-1.339 8.723-2.543 13.103-3.73 2.012-0.541 4.018-1.093 6.042-1.603a395.604 395.604 0 0 1 15.62-3.614c0.948-0.198 1.895-0.391 2.845-0.582 25.762-5.237 51.894-8.027 78.117-8.027 18.862 0 37.756 1.444 56.568 4.174a388.36 388.36 0 0 1 2.201 0.317 396.831 396.831 0 0 1 13.172 2.224c2.268 0.412 4.538 0.811 6.795 1.262 1.901 0.387 3.794 0.829 5.692 1.244 38.801 8.348 75.985 22.435 110.485 41.871 0.919 0.514 1.855 1.001 2.769 1.522 3.059 1.756 6.065 3.612 9.081 5.452 2.761 1.674 5.536 3.325 8.251 5.064 1.136 0.732 2.246 1.509 3.375 2.253 56.285 36.876 102.553 87.649 134.304 148.72 6.854 13.178 1.724 29.412-11.454 36.261-13.174 6.854-29.411 1.729-36.261-11.454a343.413 343.413 0 0 0-66.257-88.782c-0.132-0.123-0.288-0.202-0.418-0.328-15.387-14.795-31.962-27.951-49.457-39.476-0.972-0.636-1.919-1.306-2.897-1.933-2.356-1.518-4.767-2.935-7.156-4.393-2.601-1.578-5.179-3.188-7.826-4.698-0.804-0.461-1.628-0.884-2.435-1.338a345.964 345.964 0 0 0-58.349-25.94 349.755 349.755 0 0 0-32.061-9.132c-1.095-0.253-2.197-0.478-3.295-0.72a344.36 344.36 0 0 0-11.559-2.384c-3.197-0.59-6.407-1.124-9.626-1.625-1.697-0.27-3.394-0.548-5.092-0.793a346.812 346.812 0 0 0-48.192-3.383c-34.876 0-68.54 5.264-100.279 14.976-0.734 0.225-1.473 0.425-2.206 0.655-3.953 1.239-7.85 2.603-11.741 3.98-1.575 0.559-3.158 1.077-4.726 1.66-3.299 1.223-6.546 2.549-9.797 3.87-2.012 0.817-4.033 1.6-6.034 2.456-3.239 1.388-6.427 2.87-9.613 4.353-1.819 0.845-3.646 1.66-5.456 2.539a339.897 339.897 0 0 0-11.732 6.017c-0.814 0.433-1.639 0.849-2.448 1.287-62.74 34.265-113.663 87.54-144.993 152.029-0.281 0.584-0.565 1.169-0.843 1.755-1.819 3.798-3.537 7.65-5.218 11.523a340.969 340.969 0 0 0-5.733 14.116 355.308 355.308 0 0 0-5.403 15.243 350.445 350.445 0 0 0-3.182 10.243 336.515 336.515 0 0 0-1.786 6.275 348.299 348.299 0 0 0-2.414 9.36 335.422 335.422 0 0 0-1.917 8.286 342.87 342.87 0 0 0-1.434 6.953 340.727 340.727 0 0 0-2.636 15.188 344.575 344.575 0 0 0-3.755 50.582c0 34.876 5.264 68.54 14.976 100.279 0.225 0.734 0.425 1.473 0.655 2.206 1.239 3.953 2.603 7.85 3.98 11.741 0.559 1.575 1.077 3.158 1.66 4.726 1.223 3.299 2.549 6.546 3.87 9.797 0.817 2.012 1.6 4.033 2.456 6.034 1.388 3.239 2.869 6.427 4.353 9.613 0.845 1.819 1.66 3.646 2.538 5.456a339.897 339.897 0 0 0 6.017 11.732c0.433 0.814 0.849 1.639 1.287 2.448 34.258 62.727 87.518 113.641 151.989 144.973 0.614 0.296 1.229 0.593 1.845 0.886 3.766 1.802 7.586 3.507 11.427 5.174a345.35 345.35 0 0 0 6.097 2.569 353.393 353.393 0 0 0 17.206 6.52 334.713 334.713 0 0 0 6.731 2.282 336.645 336.645 0 0 0 7.396 2.337c2.044 0.616 4.112 1.178 6.172 1.757 10.978 3.068 22.037 5.612 33.153 7.542 0.199 0.035 0.398 0.073 0.597 0.107 67.553 11.607 136.837 2.413 198.55-24.898 68.452-30.709 126.296-83.362 162.649-150.441 1.157-2.156 2.317-4.309 3.429-6.491a345.346 345.346 0 0 0 2.269-4.51c6.649-13.538 12.469-27.546 17.355-42.018 0.104-0.31 0.282-0.571 0.397-0.874 7.376-22.04 12.372-44.721 15.123-67.817l-114.403 62.822c-13.025 7.16-29.363 2.385-36.511-10.627-7.152-13.016-2.394-29.363 10.627-36.511l165.996-91.154a26.728 26.728 0 0 1 12.916-3.326c2.629 0 5.207 0.471 7.706 1.218 7.04 1.74 13.371 6.241 17.136 13.098l91.154 165.991c7.155 13.019 2.397 29.366-10.623 36.513z"  horiz-adv-x="1024" />

    
    <glyph glyph-name="connecting_line" unicode="&#59003;" d="M941.81348693 190.28869120000002l-1.24627626 1.2091392-54.0409856 52.72917333-44.51314347 43.44272214-4.13313707 4.03810986c-2.38987947 1.7104896-5.0757632 2.78309547-7.98665386 2.78309547-9.388032 0-16.98911573-10.1515264-16.98911574-22.6885632v-61.58199467h-54.22994773a76.45866667 76.45866667 0 0 0-66.21538987 38.22933334l-5.06484053 8.7719936 0.18786987-0.03495254-234.6647552 406.4509952-0.00109227 0.00109227-0.00109227 0.00109227c-27.31649707 47.31153067-77.7977856 76.45538987-132.4285952 76.45538986h-58.33796266c-15.08857173 34.9077504-49.82483627 59.33847893-90.2725632 59.33847894-54.29220693 0-98.304-44.01179307-98.304-98.304s44.01179307-98.304 98.304-98.304c41.01352107 0 76.15501653 25.1199488 90.89406293 60.8108544h57.71646293a76.45866667 76.45866667 0 0 0 63.78728107-34.31355734l241.9687424-419.10272 0.00109227-0.00109226 0.00109226-0.00109227c27.31649707-47.31153067 77.7977856-76.45538987 132.4285952-76.45538987h54.22994774v-60.48863573c0-12.52283733 7.602176-22.6885632 16.98911573-22.6885632 3.37619627 0 6.504448 1.3631488 9.1521024 3.6175872 0.3735552 0.3145728 0.71325013 0.68048213 1.06496 1.02673067l46.4289792 45.318144 54.0278784 52.6942208 1.28232107 1.25719893c4.00861867 4.14405973 6.63661227 10.5742336 6.63661226 17.88040533-0.0131072 7.3203712-2.64000853 13.76474453-6.6715648 17.90880427z m-769.93768106 472.612864c-21.11351467 0-38.22933333 17.11581867-38.22933334 38.22933333s17.11581867 38.22933333 38.22933334 38.22933334 38.22933333-17.11581867 38.22933333-38.22933334-17.11581867-38.22933333-38.22933333-38.22933333z"  horiz-adv-x="1024" />

    
    <glyph glyph-name="shuaxin" unicode="&#59225;" d="M577.6 70.4c-102.4-20.8-212.8 8-291.2 86.4-116.8 116.8-124.8 299.2-24 424v-59.2c0-17.6 14.4-32 32-32s32 14.4 32 32v128c0 9.6-3.2 17.6-9.6 22.4-6.4 6.4-14.4 9.6-22.4 9.6h-128c-17.6 0-32-14.4-32-32s14.4-32 32-32h44.8C91.2 468.8 102.4 251.2 240 112c96-96 228.8-129.6 352-104 4.8 1.6 11.2 4.8 14.4 8 12.8 12.8 12.8 32 0 44.8-6.4 9.6-19.2 12.8-28.8 9.6z m281.6 78.4H816c116.8 150.4 107.2 368-32 507.2-89.6 89.6-211.2 124.8-328 108.8-8 0-14.4-3.2-20.8-9.6-12.8-12.8-12.8-32 0-44.8 8-8 19.2-11.2 30.4-8 96 14.4 198.4-16 272-89.6 116.8-116.8 124.8-299.2 24-424V248c0 17.6-14.4 32-32 32s-32-14.4-32-32v-128c0-9.6 3.2-17.6 9.6-22.4 6.4-6.4 14.4-9.6 22.4-9.6h128c17.6 0 32 14.4 32 32s-12.8 28.8-30.4 28.8z"  horiz-adv-x="1024" />

    
    <glyph glyph-name="xinxi" unicode="&#59236;" d="M825.088 805.568H209.28A137.216 137.216 0 0 1 72.448 668.736v-398.464c0-75.456 61.504-136.832 136.832-136.832h78.656l58.176-150.656c6.848-13.632 17.152-20.48 30.784-20.48 13.632 0 27.328 6.848 30.784 20.48l58.176 150.656h352.256c75.328 0 136.96 61.376 136.96 136.832V668.8c6.784 75.2-54.72 136.768-129.984 136.768z m68.352-535.232a68.48 68.48 0 0 0-68.352-68.416H448.704c-13.632 0-27.328-6.976-30.72-20.48l-37.696-92.48-37.568 92.416c-6.848 13.504-17.088 20.48-30.784 20.48H209.28a68.544 68.544 0 0 0-68.416 68.416V668.8c0 37.568 30.848 68.416 68.416 68.416h615.808c37.568 0 68.352-30.848 68.352-68.416v-398.464zM261.312 464a48 48 0 1 1 96 0 48 48 0 1 1-96 0z m201.344 0a48 48 0 1 1 96 0 48 48 0 1 1-96 0z m202.688 0a48 48 0 1 1 96 0 48 48 0 1 1-96 0z"  horiz-adv-x="1024" />

    
    <glyph glyph-name="yonghu" unicode="&#58880;" d="M502.496 832.864c125.888 0 227.936-100.384 227.936-224.192 0-123.84-102.048-224.224-227.936-224.224-125.888 0-227.936 100.384-227.936 224.224C274.56 732.512 376.64 832.864 502.496 832.864L502.496 832.864zM502.496 832.864c125.888 0 227.936-100.384 227.936-224.192 0-123.84-102.048-224.224-227.936-224.224-125.888 0-227.936 100.384-227.936 224.224C274.56 732.512 376.64 832.864 502.496 832.864L502.496 832.864zM417.024 309.696l189.984 0c162.624 0 294.432-129.632 294.432-289.6l0-18.656c0-63.04-131.84-65.44-294.432-65.44l-189.984 0c-162.624 0-294.432 0.096-294.432 65.44l0 18.656C122.592 180.06399999999996 254.4 309.696 417.024 309.696L417.024 309.696zM417.024 309.696"  horiz-adv-x="1024" />

    
    <glyph glyph-name="tongzhi" unicode="&#59224;" d="M631.0784 608.57856c0 94.08384-68.89856 136.19328-153.10336 93.60896l-99.58656-50.37184c-35.34592-17.8816-67.9936-47.96288-93.984-83.80416h-106.9248c-37.7792 0-68.68992-30.79296-68.68992-68.42368v-245.9712c0-37.6448 30.91072-68.43776 68.68992-68.43776h111.13344c25.8816-33.07264 57.84704-60.39552 92.34048-76.38784l94.45376-43.78496c85.62944-39.72224 155.68256 4.7744 155.68256 98.87232h-0.01408V608.57856z m137.9584-44.06784l89.21856 84.42752c13.69088 12.96384 16.46464 32.39424 6.1696 43.19232-10.29376 10.79808-29.93152 9.03296-43.6224-3.91552l-89.21856-84.42752c-13.6896-12.96384-16.47872-32.4096-6.1696-43.20768 10.29248-10.7968 29.93152-9.03296 43.6224 3.93088z m89.21856-460.256l-89.21856 84.42752c-13.6896 12.96256-33.32864 14.74304-43.6224 3.94496-10.29376-10.80064-7.52-30.22976 6.1696-43.19232l89.21856-84.42752c13.69088-12.96512 33.32864-14.7456 43.6224-3.94752 10.29504 10.80064 7.52128 30.26048-6.1696 43.19488z m5.82912 299.70816l-123.0528-0.5632c-18.88128-0.07424-34.29248-12.34048-34.21824-27.23328 0.06016-14.89024 15.57376-27.01056 34.45632-26.91968l123.06688 0.54784c18.88256 0.0896 34.2784 12.34304 34.21824 27.24736-0.07424 14.89152-15.57376 27.00928-34.4704 26.92096z"  horiz-adv-x="1024" />

    
    <glyph glyph-name="qiye" unicode="&#59186;" d="M31.346939-126.507289c-16.419825 0-29.854227 13.434402-29.854228 29.854228s13.434402 29.854227 29.854228 29.854227h5.970845V745.236152c0 82.099125 67.172012 149.271137 149.271137 149.271137H507.521866c82.099125 0 149.271137-67.172012 149.271137-149.271137v-91.055394h250.77551c82.099125 0 149.271137-67.172012 149.271137-149.271137v-571.708455h5.970846c16.419825 0 29.854227-13.434402 29.854227-29.854227s-13.434402-29.854227-29.854227-29.854228H31.346939z m625.446064 59.708455h341.830904V503.41691c0 50.752187-40.303207 91.055394-91.055394 91.055393H656.793003v-661.271137zM186.588921 834.798834c-50.752187 0-91.055394-40.303207-91.055393-91.055394v-812.034985H597.084548V745.236152C597.084548 795.988338 556.781341 836.291545 506.029155 836.291545H186.588921z m601.562682-720.979592c-16.419825 0-29.854227 13.434402-29.854227 29.854227s13.434402 29.854227 29.854227 29.854228h80.606414c16.419825 0 29.854227-13.434402 29.854228-29.854228s-13.434402-29.854227-29.854228-29.854227h-80.606414z m-561.259475 0c-16.419825 0-29.854227 13.434402-29.854227 29.854227s13.434402 29.854227 29.854227 29.854228h240.326531c16.419825 0 29.854227-13.434402 29.854227-29.854228s-13.434402-29.854227-29.854227-29.854227H226.892128z m561.259475 240.326531c-16.419825 0-29.854227 13.434402-29.854227 29.854227s13.434402 29.854227 29.854227 29.854227h80.606414c16.419825 0 29.854227-13.434402 29.854228-29.854227s-13.434402-29.854227-29.854228-29.854227h-80.606414z m-561.259475 0c-16.419825 0-29.854227 13.434402-29.854227 29.854227s13.434402 29.854227 29.854227 29.854227h240.326531c16.419825 0 29.854227-13.434402 29.854227-29.854227s-13.434402-29.854227-29.854227-29.854227H226.892128z m0 240.32653c-16.419825 0-29.854227 13.434402-29.854227 29.854228s13.434402 29.854227 29.854227 29.854227h240.326531c16.419825 0 29.854227-13.434402 29.854227-29.854227s-13.434402-29.854227-29.854227-29.854228H226.892128z"  horiz-adv-x="1095" />

    
    <glyph glyph-name="jiantou_xiangyou" unicode="&#60168;" d="M729.6 448H128v-85.333333h601.6L597.333333 230.4l59.733334-59.733333 234.666666 234.666666L661.333333 640l-59.733333-59.733333 128-132.266667z"  horiz-adv-x="1024" />

    
    <glyph glyph-name="jiantou_xiangzuo" unicode="&#60169;" d="M290.133333 448H896v-85.333333H290.133333l132.266667-132.266667L362.666667 170.666667 128 405.333333 362.666667 640l59.733333-59.733333-132.266667-132.266667z"  horiz-adv-x="1024" />

    
    <glyph glyph-name="shezhi" unicode="&#58931;" d="M917.3 463.6c-7.2 38.2-33.7 63.5-68.6 63.5h-1.5c-35.3 0-64.1 28.9-64.1 64.4 0 8 3.9 19.7 5.6 23.8 15 33.8 3.5 75.3-27.7 97.2l-97.8 54.7-4 1.9c-9.8 4.3-20.7 6.3-31.5 6.3-22.6 0-45.4-8.8-60.7-24.7-14.6-15.1-40.8-32.6-52.8-32.6-12.1 0-38.5 17.9-53 33.2-15.3 16.2-38.1 25.3-60.9 25.3-10.7 0-21.5-2-31.5-6.3l-102.1-55.9-4-2.6c-30.4-21.2-41.9-62.6-27-96.4 1.9-4.4 5.8-16 5.8-24 0-35.5-28.8-64.4-66.6-64.4h-1.6c-32.4 0-58.9-25.3-66.1-64.1-2-10.9-8.4-48.9-8.4-80.4 0-31.6 6.4-69.5 8.5-81.1 7.2-38 33.8-63.5 66.2-63.5h3.9c35.3 0 64.1-28.9 64.1-64.3 0-7.7-3.6-19-5.7-23.8-14.9-33.8-3.5-75.2 27.1-96.8l96.4-54.4 3.9-1.9c9.8-4.4 20.6-6.4 31.5-6.4 23 0 46.3 9.3 61.5 26 14.3 15.5 42 34.7 53.9 34.7 12.4 0 39.4-19.1 54.2-35.4 15.3-16.9 37.6-26.7 61.4-26.7 11.2 0 21.8 2.1 31.7 6.4l100.3 55.3 4 2.6c30.3 21.2 41.8 62.6 26.9 96.3-1.8 4.4-5.7 16-5.7 24 0 35.5 28.8 64.3 66.8 64.3 32.6 0.4 60.1 24.9 67.5 64.1 2 10.9 8.4 48.9 8.4 80.4 0.2 31.7-6.3 69.8-8.3 81.3z m-58.1-150.8c-1.4-7.6-5.4-15.7-10.2-15.7-69.8 0-125-54.2-125-123.4 0-20.5 7.9-41 10.3-46.8 4-9 0.8-20.2-6.3-25.1l-0.2-0.1-95.5-52.7c-1.9-0.6-4-0.9-6.4-0.9-6.9 0-13.4 2.7-17.4 7.1-5.4 5.9-51.5 54.9-98.1 54.9-47.4 0-96.9-53.2-97.4-53.7-3.8-4.2-11.2-7-18.1-7-2.6 0-5.1 0.4-7.1 1.2l-1 0.5-91.3 51.5c-6.4 5.6-9 15.9-5.6 23.4 2.1 5 10.7 26.4 10.7 47.7 0 68-55.3 123.4-123.2 123.4h-3.9c-1.4 0.3-6.1 4.8-8.2 15.4-1.7 9.3-7.4 43.7-7.4 70.1 0 21 3.8 49.8 7.4 69.9 1.9 10.1 6.3 14.9 7.7 15.6h1.9c70.4 0.1 125.6 54.3 125.6 123.5 0 21.3-8.6 42.8-10.4 46.9-3.8 8.6-0.9 19.4 5.8 24.6l1 0.6 96.8 53.1c1.9 0.6 4.2 0.9 6.5 0.9 6.9 0 14.1-2.8 18-6.9 2-2.1 49.5-51.6 95.9-51.6 45.8 0 93.2 48.5 95.2 50.6 3.9 4 11.3 6.8 18.2 6.8 2.7 0 5.2-0.4 7.2-1.2l0.8-0.4 92.9-51.9c6.7-5.9 9.5-16.1 6.1-23.8-2.1-4.9-10.7-26.2-10.7-47.7 0-68.1 55.2-123.4 123.2-123.4 8.4 0 11.1-10.8 12-15.4 3.6-19.7 7.5-48.8 7.5-70.1 0.2-21.6-3.8-51.1-7.3-69.9zM512.3 540.3c-87 0-157.6-70.5-157.6-157.5s70.5-157.6 157.6-157.6c87 0 157.5 70.5 157.5 157.6 0 87-70.5 157.5-157.5 157.5z m0-256c-54.3 0-98.5 44.1-98.5 98.4 0 54.3 44.2 98.4 98.5 98.4s98.4-44.1 98.4-98.4c0-54.2-44.1-98.4-98.4-98.4z"  horiz-adv-x="1024" />

    
    <glyph glyph-name="circle" unicode="&#62083;" d="M512 880C238 880 16 658 16 384s222-496 496-496 496 222 496 496S786 880 512 880z m0-896c-221 0-400 179-400 400S291 784 512 784s400-179 400-400-179-400-400-400z"  horiz-adv-x="1024" />

    
    <glyph glyph-name="tixing2" unicode="&#58892;" d="M916.79 159.632c-63.417 55.055-108.745 201.277-108.745 373.03 0 130.009-83.282 240.256-199.127 280.6C601.102 860.16 560.758 895.998 511.812 895.998c-48.945 0-89.29-35.838-97.106-82.736-115.844-40.344-199.127-150.591-199.127-280.6 0-171.72-45.293-317.941-108.745-372.996-35.429-30.753-55.806-75.432-55.806-122.466 0-54.748 44.202-99.12 98.745-99.12H445.97c0-54.714 11.298-66.046 65.841-66.046 54.543 0 65.841 11.332 65.841 66.046h296.199c54.543 0 98.744 44.372 98.744 99.12 0 47-20.343 91.678-55.806 122.432zM187.557 8.529c-59.56 0-62.803 64.236-49.082 76.182 88.163 76.49 142.945 248.141 142.945 447.95 0 109.292 121.51 231.212 230.392 231.212 108.882 0 230.392-121.92 230.392-231.211 0-199.81 54.782-371.495 142.946-447.985 13.755-11.912 20.854-76.148-49.082-76.148H187.557z"  horiz-adv-x="1024" />

    
    <glyph glyph-name="connecting_line-copy" unicode="&#59187;" d="M941.81348693 190.28869120000002l-1.24627626 1.2091392-54.0409856 52.72917333-44.51314347 43.44272214-4.13313707 4.03810986c-2.38987947 1.7104896-5.0757632 2.78309547-7.98665386 2.78309547-9.388032 0-16.98911573-10.1515264-16.98911574-22.6885632v-61.58199467h-54.22994773a76.45866667 76.45866667 0 0 0-66.21538987 38.22933334l-5.06484053 8.7719936 0.18786987-0.03495254-234.6647552 406.4509952-0.00109227 0.00109227-0.00109227 0.00109227c-27.31649707 47.31153067-77.7977856 76.45538987-132.4285952 76.45538986h-58.33796266c-15.08857173 34.9077504-49.82483627 59.33847893-90.2725632 59.33847894-54.29220693 0-98.304-44.01179307-98.304-98.304s44.01179307-98.304 98.304-98.304c41.01352107 0 76.15501653 25.1199488 90.89406293 60.8108544h57.71646293a76.45866667 76.45866667 0 0 0 63.78728107-34.31355734l241.9687424-419.10272 0.00109227-0.00109226 0.00109226-0.00109227c27.31649707-47.31153067 77.7977856-76.45538987 132.4285952-76.45538987h54.22994774v-60.48863573c0-12.52283733 7.602176-22.6885632 16.98911573-22.6885632 3.37619627 0 6.504448 1.3631488 9.1521024 3.6175872 0.3735552 0.3145728 0.71325013 0.68048213 1.06496 1.02673067l46.4289792 45.318144 54.0278784 52.6942208 1.28232107 1.25719893c4.00861867 4.14405973 6.63661227 10.5742336 6.63661226 17.88040533-0.0131072 7.3203712-2.64000853 13.76474453-6.6715648 17.90880427z m-769.93768106 472.612864c-21.11351467 0-38.22933333 17.11581867-38.22933334 38.22933333s17.11581867 38.22933333 38.22933334 38.22933334 38.22933333-17.11581867 38.22933333-38.22933334-17.11581867-38.22933333-38.22933333-38.22933333z"  horiz-adv-x="1024" />

    
    <glyph glyph-name="jiantou-shang-cuxiantiao" unicode="&#59047;" d="M512 460.8L266.666667 215.466667c-14.933333-14.933333-40.533333-14.933333-55.466667 0l-4.266667 4.266666C192 234.666667 192 260.266667 206.933333 277.333333l275.2 275.2c8.533333 8.533333 19.2 12.8 29.866667 10.666667 10.666667 0 21.333333-4.266667 29.866667-10.666667L817.066667 277.333333c14.933333-14.933333 14.933333-40.533333 0-55.466666l-4.266667-4.266667c-14.933333-14.933333-40.533333-14.933333-55.466667 0L512 460.8z"  horiz-adv-x="1024" />

    
    <glyph glyph-name="jiantou-xia-cuxiantiao" unicode="&#59049;" d="M512 307.2L266.666667 552.533333c-14.933333 14.933333-40.533333 14.933333-55.466667 0l-4.266667-4.266666c-14.933333-14.933333-14.933333-40.533333 0-57.6l275.2-275.2c8.533333-8.533333 19.2-12.8 29.866667-10.666667 10.666667 0 21.333333 4.266667 29.866667 10.666667L817.066667 490.666667c14.933333 14.933333 14.933333 40.533333 0 55.466666l-4.266667 4.266667c-14.933333 14.933333-40.533333 14.933333-55.466667 0L512 307.2z"  horiz-adv-x="1024" />

    
    <glyph glyph-name="remind" unicode="&#59384;" d="M544 744.6h-63.6V800.2c0 17.6 14.2 31.8 31.8 31.8S544 817.8 544 800.2v-55.6zM832 64H192c-17.7 0-32 14.3-32 32v96c0 8.5 3.4 16.6 9.4 22.6l54.6 54.6V480c0 76.9 30 149.3 84.4 203.6S435.1 768 512 768c76.9 0 149.3-30 203.6-84.4C770 629.3 800 556.9 800 480v-210.7l54.6-54.6c6-6 9.4-14.1 9.4-22.6v-96c0-17.8-14.3-32.1-32-32.1z m-608 64h576v50.7l-54.6 54.6c-6 6-9.4 14.1-9.4 22.6V480c0 123.5-100.5 224-224 224S288 603.5 288 480v-224c0-8.5-3.4-16.6-9.4-22.6L224 178.7V128zM513-64c-48 0-87.9 35.4-94.9 81.5-1.2 7.6 4.9 14.5 12.6 14.5h39.5c5.6 0 10.6-3.7 12.2-9.1 3.9-13.2 16.2-22.9 30.7-22.9s26.8 9.7 30.7 22.9c1.6 5.4 6.6 9.1 12.2 9.1h39.5c7.7 0 13.7-6.8 12.6-14.5C600.9-28.6 561-64 513-64zM672 480c-11.5 0-22.5 6.2-28.3 17-23.6 44.4-41.9 62.9-81.8 82.3-15.9 7.7-22.5 26.9-14.7 42.8 7.7 15.9 26.9 22.5 42.8 14.7 58.9-28.7 84.2-60.7 110.2-109.7 8.3-15.6 2.4-35-13.2-43.3-4.8-2.6-9.9-3.8-15-3.8z"  horiz-adv-x="1024" />

    
    <glyph glyph-name="duomeitiicon-" unicode="&#58903;" d="M705.386667 718.4639999999999c56.682667 0 109.546667-22.122667 148.8-62.272 76.522667-78.272 72.490667-207.232-9.002667-287.424L509.738667 38.50666699999999 174.250667 368.746667c-81.472 80.213333-85.525333 209.152-9.002667 287.424 39.274667 40.170667 92.117333 62.272 148.8 62.272 55.189333 0 107.029333-21.12 145.962667-59.413334l49.706666-48.938666 49.706667 48.938666a206.741333 206.741333 0 0 0 145.962667 59.434667M314.069333 789.312c-72.512 0-144.981333-27.861333-199.488-83.605333-105.024-107.456-97.109333-282.048 9.962667-387.456L476.586667-28.28800000000001a47.125333 47.125333 0 0 1 66.261333 0l352.021333 346.538667c107.093333 105.408 114.986667 280.021333 9.962667 387.456-54.485333 55.744-126.997333 83.605333-199.488 83.605333-70.826667 0-141.610667-26.602667-195.648-79.786667-53.973333 53.205333-124.821333 79.786667-195.626667 79.786667z"  horiz-adv-x="1024" />

    
    <glyph glyph-name="xinxi1" unicode="&#59070;" d="M167.133067 122.203657a31.120475 31.120475 0 0 0 11.65468-26.285023l-10.042863-168.86887a51.206199 51.206199 0 0 1 14.630343-40.419421 49.594382 49.594382 0 0 1 61.992977-6.075312l179.903621 118.034629a50.834241 50.834241 0 0 0 33.476207 7.935101 612.98656 612.98656 0 0 1 61.992978-3.223635c287.647415 0 520.74101 199.865359 520.74101 446.349437S808.388425 896 520.74101 896 0 696.134641 0 449.650563a389.56387 389.56387 0 0 1 40.791379-173.580337 48.10655 48.10655 0 0 1 68.812205-19.093837l2.107761 1.23986a49.594382 49.594382 0 0 1 17.358034 63.108851A290.127134 290.127134 0 0 0 99.188764 449.650563C99.188764 641.084877 288.267345 796.811236 520.74101 796.811236s421.552246-155.726359 421.552246-347.160673c0-172.092505-152.874682-315.296283-352.616055-342.449207A504.126892 504.126892 0 0 0 520.74101 102.48989a528.428139 528.428139 0 0 0-52.818017 2.727691 148.783146 148.783146 0 0 1-97.204988-23.681318L309.964887 41.4888l-35.955927-23.805303 2.231747 37.195786 2.107761 35.212011a128.821407 128.821407 0 0 1-48.354522 108.487711l-2.231747 1.735803a48.850466 48.850466 0 0 1-71.41591-11.530694 49.594382 49.594382 0 0 1 10.786778-66.580457zM319.387819 518.09081m-61.992977 0a61.992977 61.992977 0 1 1 123.985955 0 61.992977 61.992977 0 1 1-123.985955 0ZM722.0942 518.09081m-61.992977 0a61.992977 61.992977 0 1 1 123.985955 0 61.992977 61.992977 0 1 1-123.985955 0ZM587.817411 358.024942c0-18.349921-28.764741-38.93159-67.076401-38.931589s-67.076402 20.581668-67.076402 38.931589a45.750817 45.750817 0 0 1-91.377648 0c0-73.151713 69.556121-130.309238 158.45405-130.309238s158.45405 57.157525 158.45405 130.309238a45.750817 45.750817 0 0 1-91.377649 0z"  horiz-adv-x="1041" />

    
    <glyph glyph-name="jiantou-zuo" unicode="&#59192;" d="M181.772405 416.325457L458.222165 692.775217c12.496698 12.496698 12.496698 32.758136 0 45.254834-12.496698 12.496698-32.758136 12.496698-45.254834 0l-331.014362-331.014362c-12.496698-12.496698-12.496698-32.758136 0-45.254834l339.144676-341.796326c12.496698-12.496698 32.758136-12.496698 45.254834 0 12.496698 12.496698 12.496698 32.758136 0 45.254834l-284.454209 287.105859 739.427925 0.03182c17.673427 0 32.000117 14.32669 32.000117 32.000117-0.000707 17.67272-14.327398 31.99941-32.000117 32.000118l-739.553083-0.032527z"  horiz-adv-x="1024" />

    
    <glyph glyph-name="jiantou-you" unicode="&#59193;" d="M842.808715 351.092908L566.358955 74.643148c-12.496698-12.496698-12.496698-32.758136 0-45.254834 12.496698-12.496698 32.758136-12.496698 45.254834 0l331.014362 331.014362c12.496698 12.496698 12.496698 32.758136 0 45.254834l-339.144676 341.796326c-12.496698 12.496698-32.758136 12.496698-45.254834 0-12.496698-12.496698-12.496698-32.758136 0-45.254834l284.454209-287.105859-739.427925-0.03182c-17.673427 0-32.000117-14.32669-32.000117-32.000118 0.000707-17.67272 14.327398-31.99941 32.000117-32.000117l739.553083 0.032527z"  horiz-adv-x="1024" />

    
    <glyph glyph-name="Alertcircle" unicode="&#59010;" d="M542.72 189.44c0-17.408-13.312-30.72-30.72-30.72s-30.72 13.312-30.72 30.72 13.312 30.72 30.72 30.72 30.72-13.312 30.72-30.72z m-30.72 419.84c-17.408 0-30.72-13.312-30.72-30.72v-296.96c0-16.384 13.312-30.72 30.72-30.72s30.72 13.312 30.72 30.72V578.56c0 16.384-13.312 30.72-30.72 30.72z m460.8-225.28c0-253.952-206.848-460.8-460.8-460.8S51.2 130.048 51.2 384 258.048 844.8 512 844.8s460.8-206.848 460.8-460.8z m-40.96 0C931.84 615.424 743.424 803.84 512 803.84S92.16 615.424 92.16 384s188.416-419.84 419.84-419.84 419.84 188.416 419.84 419.84z"  horiz-adv-x="1024" />

    
    <glyph glyph-name="Closewithcircle" unicode="&#59014;" d="M693.248 536.576L540.672 384l151.552-151.552c8.192-8.192 8.192-20.48 0-28.672-4.096-4.096-9.216-6.144-14.336-6.144s-10.24 2.048-14.336 6.144L512 355.328 359.424 202.752c-4.096-4.096-9.216-6.144-14.336-6.144s-10.24 2.048-14.336 6.144c-8.192 8.192-8.192 20.48 0 28.672L483.328 384 330.752 536.576c-8.192 8.192-8.192 20.48 0 28.672s20.48 8.192 28.672 0L512 412.672l152.576 152.576c8.192 8.192 20.48 8.192 28.672 0 8.192-8.192 8.192-20.48 0-28.672zM972.8 384c0-253.952-206.848-460.8-460.8-460.8S51.2 130.048 51.2 384 258.048 844.8 512 844.8s460.8-206.848 460.8-460.8z m-40.96 0C931.84 615.424 743.424 803.84 512 803.84S92.16 615.424 92.16 384s188.416-419.84 419.84-419.84 419.84 188.416 419.84 419.84z"  horiz-adv-x="1024" />

    
    <glyph glyph-name="shanchu3" unicode="&#58918;" d="M709.469091 686.545455H930.909091a34.909091 34.909091 0 0 0 0-69.818182h-81.454546v-607.185455c0-56.366545-44.311273-102.632727-99.746909-102.632727H274.292364c-55.435636 0-99.746909 46.266182-99.746909 102.632727V616.727273H93.090909a34.909091 34.909091 0 0 0 0 69.818182h244.712727a186.181818 186.181818 0 0 0 371.665455 0z m-70.050909 0a116.363636 116.363636 0 0 1-231.563637 0h231.563637z m140.218182-69.818182h-535.272728v-607.185455c0-18.455273 13.730909-32.814545 29.928728-32.814545h475.415272c16.174545 0 29.928727 14.359273 29.928728 32.814545V616.727273z m-418.909091-147.2a34.909091 34.909091 0 0 0 69.818182 0v-338.897455a34.909091 34.909091 0 0 0-69.818182 0V469.527273z m232.727272 0a34.909091 34.909091 0 0 0 69.818182 0v-338.897455a34.909091 34.909091 0 0 0-69.818182 0V469.527273z"  horiz-adv-x="1024" />

    
    <glyph glyph-name="tianjia" unicode="&#59018;" d="M546.133333 418.133333h136.533334v-68.266666h-136.533334v-136.533334h-68.266666v136.533334h-136.533334v68.266666h136.533334v136.533334h68.266666v-136.533334z m-34.133333-341.333333a307.2 307.2 0 1 1 0 614.4 307.2 307.2 0 0 1 0-614.4z m0-68.266667C304.64 8.533333 136.533333 176.64 136.533333 384S304.64 759.466667 512 759.466667s375.466667-168.106667 375.466667-375.466667-168.106667-375.466667-375.466667-375.466667z"  horiz-adv-x="1024" />

    
    <glyph glyph-name="shanchu4" unicode="&#58900;" d="M796 664.8c-155.5 155.5-408.5 155.5-564 0s-155.5-408.5 0-564 408.5-155.5 564 0 155.6 408.5 0 564zM765.8 131C627-7.9 401-7.9 262.2 131c-138.9 138.9-138.9 364.8 0 503.6s364.8 138.9 503.6 0 138.9-364.8 0-503.6zM544.2 382.8L697 535.6c8.3 8.3 8.3 21.9 0 30.2s-21.9 8.3-30.2 0L514 413 361.2 565.8c-8.3 8.3-21.9 8.3-30.2 0s-8.3-21.9 0-30.2l152.8-152.8L331 230.1c-8.3-8.3-8.3-21.9 0-30.2s21.9-8.3 30.2 0L514 352.6l152.8-152.8c8.3-8.3 21.9-8.3 30.2 0s8.3 21.9 0 30.2L544.2 382.8z"  horiz-adv-x="1024" />

    
    <glyph glyph-name="book-mark-line" unicode="&#59019;" d="M128 106.666667V682.666667a128 128 0 0 0 128 128h597.333333a42.666667 42.666667 0 0 0 42.666667-42.666667v-768a42.666667 42.666667 0 0 0-42.666667-42.666667H277.333333A149.333333 149.333333 0 0 0 128 106.666667zM810.666667 42.666667v128H277.333333a64 64 0 0 1 0-128H810.666667zM426.666667 725.333333H256a42.666667 42.666667 0 0 1-42.666667-42.666666v-441.045334A148.736 148.736 0 0 0 277.333333 256H810.666667V725.333333h-85.333334v-341.333333l-149.333333 85.333333-149.333333-85.333333V725.333333z"  horiz-adv-x="1024" />

    


  </font>
</defs>
</svg>
